<svg xmlns="http://www.w3.org/2000/svg" width="195.652" height="44.171" viewBox="0 0 195.652 44.171">
  <g id="Group_275" data-name="Group 275" transform="translate(-636.847 -517.989)">
    <path id="Path_354" data-name="Path 354" d="M890.2,570.233a39.9,39.9,0,0,1-7.706-.763v-2.617a63.87,63.87,0,0,0,7.706.472c3.672,0,5.525-1.272,5.525-4.435,0-2.144-.8-3.38-3.671-4.689l-4.616-2.071c-3.6-1.6-5.562-3.563-5.562-7.306,0-4.435,2.908-6.542,8.833-6.542a37.722,37.722,0,0,1,7.452.727v2.653a73.177,73.177,0,0,0-7.343-.472c-3.562,0-5.561.835-5.561,3.635,0,2.072.763,3.235,3.635,4.507l4.653,2.035c3.78,1.672,5.6,3.744,5.6,7.523C899.146,567.579,896.166,570.233,890.2,570.233Z" transform="translate(-158.05 -15.669)" fill="#fff"/>
    <path id="Path_355" data-name="Path 355" d="M934.351,574.326c-3.635,0-4.943-1.309-4.943-5.089V556.552l-4.035-.291v-2.435h4.035v-5.2h3.272v5.2h5.343v2.726h-5.343v12.54c0,2.253.182,2.617,2.035,2.617,1.127,0,2.69-.109,3.307-.182v2.253A13.705,13.705,0,0,1,934.351,574.326Z" transform="translate(-186.103 -19.762)" fill="#fff"/>
    <path id="Path_356" data-name="Path 356" d="M969.864,582.846c-5.6,0-8.506-3.235-8.506-9.051v-2.908c0-5.816,2.907-9.051,8.506-9.051,5.634,0,8.542,3.236,8.542,9.051v2.908C978.405,579.611,975.5,582.846,969.864,582.846Zm5.27-11.959c0-4.325-1.6-6.18-5.27-6.18-3.6,0-5.235,1.854-5.235,6.18v2.908c0,4.325,1.6,6.179,5.235,6.179,3.671,0,5.27-1.854,5.27-6.179Z" transform="translate(-209.314 -28.282)" fill="#fff"/>
    <path id="Path_357" data-name="Path 357" d="M1099.765,590.442a44.42,44.42,0,0,1-7.343-.727v-2.362c2.181.145,4.8.29,7.343.29,3.962,0,4.434-1.417,4.434-4.18v-1.018a29.178,29.178,0,0,1-4.034.364c-5.634,0-8.905-2.254-8.905-9.233v-2.508c0-6.143,2.58-9.233,9.014-9.233a61.879,61.879,0,0,1,7.2.51v21.118C1107.47,587.571,1106.162,590.442,1099.765,590.442Zm4.434-25.589a29.219,29.219,0,0,0-3.926-.254c-4.507,0-5.743,2.144-5.743,6.471v2.508c0,5.016,1.6,6.47,5.67,6.47a27.481,27.481,0,0,0,4-.327Z" transform="translate(-293.102 -28.282)" fill="#fff"/>
    <g id="Group_199" data-name="Group 199" transform="translate(636.847 517.989)">
      <g id="Group_198" data-name="Group 198" transform="translate(0 0)">
        <g id="Group_197" data-name="Group 197">
          <g id="Group_193" data-name="Group 193" transform="translate(0 4.816)">
            <path id="Path_358" data-name="Path 358" d="M663.765,535.659c0-2.158-1.115-4.1-3.61-4.1H640.766c-2.643,0-3.919,1.944-3.919,4.28v2.911h9.5v24.164h7.918V538.748h9.5Z" transform="translate(-636.847 -531.557)" fill="#fff" fill-rule="evenodd"/>
            <rect id="Rectangle_432" data-name="Rectangle 432" width="7.463" height="21.386" transform="translate(35.343 9.969)" fill="#fff"/>
            <path id="Path_359" data-name="Path 359" d="M775.54,559.637H764.061c-.909,0-1.056.44-1.056,1.038v20.349h7.112v-15.81c0-.3.1-.659.48-.659h2.453c1.779,0,2.518.543,2.518,2.615v13.854h7.138V566.411C782.705,561.561,780.569,559.637,775.54,559.637Z" transform="translate(-718.22 -549.669)" fill="#fff" fill-rule="evenodd"/>
            <path id="Path_360" data-name="Path 360" d="M834.855,559.656H823.77V561.7c0,2.191,1.413,2.859,3.057,2.859h5.664c1.78,0,2.39.713,2.39,2.621v.871h-6.44c-3.464,0-5.48,2.436-5.48,6.358,0,4.031,1.925,6.625,5.157,6.625h13.9V566.424C842.021,561.574,839.884,559.656,834.855,559.656Zm.026,16.482h-3.329c-.78,0-1.386-.46-1.386-1.727s.594-1.725,1.386-1.725h3.329Z" transform="translate(-756.893 -549.681)" fill="#fff" fill-rule="evenodd"/>
            <path id="Path_361" data-name="Path 361" d="M700.455,561.6v-1.962h-6.726v21.387h7.028v-9.712c0-3.877,3.83-5.557,6.142-5.557v-6.119h-.316A10.569,10.569,0,0,0,700.455,561.6Z" transform="translate(-673.536 -549.669)" fill="#fff" fill-rule="evenodd"/>
          </g>
          <g id="Group_196" data-name="Group 196" transform="translate(33.078)">
            <g id="Group_195" data-name="Group 195">
              <g id="Group_194" data-name="Group 194">
                <path id="Path_362" data-name="Path 362" d="M742.038,523.994a6,6,0,1,0-6.007,6A6.006,6.006,0,0,0,742.038,523.994Z" transform="translate(-730.028 -517.989)" fill="#ef4136"/>
              </g>
            </g>
          </g>
        </g>
      </g>
    </g>
    <g id="Group_200" data-name="Group 200" transform="translate(770.172 533.231)">
      <path id="Path_363" data-name="Path 363" d="M1015.659,565.544v16.2h-3.235V561.436h3.2v1.6a11.206,11.206,0,0,1,7.125-2.109v2.909A14.773,14.773,0,0,0,1015.659,565.544Z" transform="translate(-1012.424 -560.927)" fill="#fff"/>
      <path id="Path_364" data-name="Path 364" d="M1057.016,581.6v-1.516a11.191,11.191,0,0,1-6.362,1.854c-3.744,0-5.962-1.672-5.962-5.671v-.727c0-5.271,3.6-6.181,9.2-6.181h2.982v-1.454c0-3.453-.692-4.217-4.69-4.217a49.939,49.939,0,0,0-6.18.436V561.8a23.485,23.485,0,0,1,6.434-.873c6.653,0,7.707,2.436,7.707,6.98V581.6Zm-.145-9.768h-2.982c-4.217,0-5.926.509-5.926,3.708v.982c0,2.254,1.382,2.872,3.344,2.872a11.655,11.655,0,0,0,5.563-1.6Z" transform="translate(-1033.238 -560.927)" fill="#fff"/>
    </g>
    <path id="Path_365" data-name="Path 365" d="M1143.241,573.534v.4c0,3.453.509,6.071,6.035,6.071a46.349,46.349,0,0,0,6.979-.581v2.617a28.719,28.719,0,0,1-7.125.8c-7.088,0-9.161-3.163-9.161-9.634V571.68c0-6.289,2.8-9.852,8.471-9.852,5.889,0,8.579,3.526,8.579,10.252v1.454Zm10.4-3.053c0-2.436-.509-5.817-5.162-5.817-4.581,0-5.2,3.381-5.2,5.817v.363h10.361Z" transform="translate(-324.52 -28.277)" fill="#fff"/>
  </g>
</svg>
