<?xml version="1.0" encoding="utf-8"?>
<!-- Generator: Adobe Illustrator 27.8.1, SVG Export Plug-In . SVG Version: 6.00 Build 0)  -->
<svg version="1.1" id="Layer_1" xmlns="http://www.w3.org/2000/svg" xmlns:xlink="http://www.w3.org/1999/xlink" x="0px" y="0px"
	 viewBox="0 0 1292.51 818" style="enable-background:new 0 0 1292.51 818;" xml:space="preserve">
<style type="text/css">
	.st0{fill:#FFFFFF;}
	.st1{fill:#CFC39C;}
</style>
<g>
	<g>
		<path class="st0" d="M578.28,0H30.4C13.64,0,0,13.64,0,30.4v310.63c0,16.76,13.64,30.4,30.4,30.4h352.39
			c13.61,0,25.69-9.26,29.36-22.51c23.28-84.07,89.96-150.75,174.03-174.03c13.25-3.67,22.51-15.74,22.51-29.36V30.4
			C608.68,13.64,595.05,0,578.28,0z M604.08,145.54c0,11.55-7.87,21.8-19.13,24.92c-85.62,23.71-153.53,91.62-177.24,177.24
			c-3.12,11.26-13.37,19.13-24.92,19.13H30.4c-14.22,0-25.79-11.57-25.79-25.79V30.4c0-14.22,11.57-25.79,25.79-25.79h547.89
			c14.22,0,25.79,11.57,25.79,25.79V145.54z"/>
		<path class="st1" d="M385.8,371.21c23.24,2.23,44.63-12.36,51.44-34.69c9.96-32.65,27.86-62.57,52.24-86.72
			c23.81-23.6,53.01-41.02,84.65-50.87c22.27-6.93,36.77-28.33,34.28-51.52l-0.01-0.05c-56.18,6.04-109.35,31.38-149.71,71.37
			c-40.94,40.56-66.8,94.52-72.84,151.94L385.8,371.21L385.8,371.21z"/>
		<g>
			<path class="st0" d="M71.02,108.27l-2.23-7.05h-7.72l-2.29,7.05h-2.7l7.05-21.55h3.68l7.05,21.55H71.02z M65.95,92.49
				c-0.38-1.16-0.64-2.26-0.87-3.54h-0.29c-0.26,1.28-0.49,2.38-0.87,3.54l-2.06,6.29h6.12L65.95,92.49z"/>
			<path class="st0" d="M89.7,108.27h-3.6l-5.31-15.95h2.81l3.05,9.8c0.49,1.57,0.87,2.93,1.31,4.38c0.38-1.45,0.72-2.78,1.22-4.38
				l3.02-9.8h2.81L89.7,108.27z"/>
			<path class="st0" d="M99.35,101.25v0.32c0,2.76,0.41,4.84,4.82,4.84c1.77,0,4.06-0.2,5.57-0.46v2.09
				c-1.1,0.29-3.05,0.64-5.69,0.64c-5.66,0-7.31-2.52-7.31-7.69v-1.22c0-5.02,2.23-7.86,6.76-7.86c4.7,0,6.85,2.81,6.85,8.18v1.16
				H99.35z M107.65,98.82c0-1.94-0.41-4.64-4.12-4.64c-3.65,0-4.15,2.7-4.15,4.64v0.29h8.27V98.82z"/>
			<path class="st0" d="M116.35,95.6v12.68h-2.58V92.32h2.55v1.28c1.51-1.19,3.45-1.68,5.69-1.68v2.32
				C119.91,94.23,117.56,94.81,116.35,95.6z"/>
			<path class="st0" d="M131.17,108.68c-2.9,0-3.94-1.04-3.94-4.06V94.49l-3.22-0.23v-1.94h3.22v-4.15h2.61v4.15h4.26v2.17h-4.26
				v10.01c0,1.8,0.14,2.09,1.62,2.09c0.9,0,2.15-0.09,2.64-0.14v1.8C133.67,108.39,132.39,108.68,131.17,108.68z"/>
			<path class="st0" d="M137.14,89.36v-3.54h2.64v3.54H137.14z M137.14,108.27V92.32h2.61v15.95H137.14z"/>
			<path class="st0" d="M149.74,108.68c-4.35,0-6.38-2.64-6.38-7.19v-2.41c0-4.58,2.03-7.16,6.38-7.16c2.32,0,4,0.38,4.55,0.55v1.97
				c-1.94-0.2-3.34-0.29-4.18-0.29c-2.55,0-4.15,0.96-4.15,4.93v2.41c0,3.97,1.6,4.96,4.15,4.96c0.84,0,2.23-0.09,4.18-0.29v1.97
				C153.74,108.3,152.06,108.68,149.74,108.68z"/>
			<path class="st0" d="M166.84,108.27v-1.07c-0.96,0.67-2.7,1.48-5.08,1.48c-2.99,0-4.76-1.33-4.76-4.53v-0.58
				c0-4.21,2.87-4.93,7.34-4.93h2.38v-1.16c0-2.76-0.55-3.37-3.74-3.37c-1.77,0-3.19,0.15-4.93,0.35v-1.86
				c0.46-0.17,2.67-0.7,5.13-0.7c5.31,0,6.15,1.94,6.15,5.57v10.79H166.84z M166.72,100.62h-2.38c-3.37,0-4.73,0.41-4.73,2.96v0.78
				c0,1.8,1.1,2.29,2.67,2.29c1.89,0,3.77-0.84,4.44-1.28V100.62z"/>
			<path class="st0" d="M173.36,108.27V85.82h2.58v22.45H173.36z"/>
			<path class="st0" d="M180.14,108.27V85.82h2.58v22.45H180.14z"/>
			<path class="st0" d="M194.04,109.7c-1.07,3.07-2.09,5.05-5.37,5.05c-1.36,0-2.55-0.17-3.1-0.29v-2c1.25,0.09,1.97,0.12,3.02,0.12
				c1.57,0,2-0.81,2.87-3.13l0.43-1.16l-6.18-15.95h2.87l3.25,8.96c0.49,1.42,0.81,2.52,1.33,4.23c0.41-1.71,0.73-2.78,1.22-4.26
				l2.93-8.93h2.78L194.04,109.7z"/>
			<path class="st0" d="M208.71,89.36v-3.54h2.64v3.54H208.71z M208.71,108.27V92.32h2.61v15.95H208.71z"/>
			<path class="st0" d="M225.71,108.27V98.09c0-2.9-0.46-3.94-2.67-3.94c-1.25,0-2.9,0.49-5.02,1.42v12.71h-2.58V92.32h2.58v1.25
				c1.86-0.96,3.54-1.65,5.31-1.65c4.24,0,4.99,2.29,4.99,6.18v10.18H225.71z"/>
			<path class="st0" d="M238.17,108.68c-2.9,0-3.94-1.04-3.94-4.06V94.49l-3.22-0.23v-1.94h3.22v-4.15h2.61v4.15h4.26v2.17h-4.26
				v10.01c0,1.8,0.14,2.09,1.62,2.09c0.9,0,2.15-0.09,2.64-0.14v1.8C240.67,108.39,239.39,108.68,238.17,108.68z"/>
			<path class="st0" d="M245.86,101.25v0.32c0,2.76,0.41,4.84,4.82,4.84c1.77,0,4.06-0.2,5.57-0.46v2.09
				c-1.1,0.29-3.05,0.64-5.69,0.64c-5.66,0-7.31-2.52-7.31-7.69v-1.22c0-5.02,2.23-7.86,6.76-7.86c4.7,0,6.84,2.81,6.84,8.18v1.16
				H245.86z M254.16,98.82c0-1.94-0.41-4.64-4.12-4.64c-3.65,0-4.15,2.7-4.15,4.64v0.29h8.27V98.82z"/>
			<path class="st0" d="M266.65,114.74c-2.44,0-5.37-0.46-5.86-0.58v-1.89c1.74,0.12,3.83,0.23,5.86,0.23
				c3.16,0,3.54-1.13,3.54-3.34v-0.81c-0.52,0.09-2.03,0.29-3.22,0.29c-4.5,0-7.11-1.8-7.11-7.37v-2c0-4.9,2.06-7.37,7.19-7.37
				c1.89,0,4.15,0.2,5.74,0.41v16.85C272.8,112.45,271.76,114.74,266.65,114.74z M270.19,94.32c-0.32-0.06-1.68-0.2-3.13-0.2
				c-3.6,0-4.58,1.71-4.58,5.16v2c0,4,1.28,5.16,4.53,5.16c1.19,0,2.78-0.17,3.19-0.26V94.32z"/>
			<path class="st0" d="M279.44,95.6v12.68h-2.58V92.32h2.55v1.28c1.51-1.19,3.45-1.68,5.69-1.68v2.32
				C283.01,94.23,280.66,94.81,279.44,95.6z"/>
			<path class="st0" d="M296.76,108.27v-1.07c-0.96,0.67-2.7,1.48-5.08,1.48c-2.99,0-4.76-1.33-4.76-4.53v-0.58
				c0-4.21,2.87-4.93,7.34-4.93h2.38v-1.16c0-2.76-0.55-3.37-3.74-3.37c-1.77,0-3.19,0.15-4.93,0.35v-1.86
				c0.46-0.17,2.67-0.7,5.13-0.7c5.31,0,6.15,1.94,6.15,5.57v10.79H296.76z M296.64,100.62h-2.38c-3.37,0-4.73,0.41-4.73,2.96v0.78
				c0,1.8,1.1,2.29,2.67,2.29c1.89,0,3.77-0.84,4.44-1.28V100.62z"/>
			<path class="st0" d="M309.05,108.68c-2.9,0-3.94-1.04-3.94-4.06V94.49l-3.22-0.23v-1.94h3.22v-4.15h2.61v4.15h4.26v2.17h-4.26
				v10.01c0,1.8,0.14,2.09,1.62,2.09c0.9,0,2.15-0.09,2.64-0.14v1.8C311.54,108.39,310.27,108.68,309.05,108.68z"/>
			<path class="st0" d="M316.74,101.25v0.32c0,2.76,0.41,4.84,4.82,4.84c1.77,0,4.06-0.2,5.57-0.46v2.09
				c-1.1,0.29-3.05,0.64-5.69,0.64c-5.66,0-7.31-2.52-7.31-7.69v-1.22c0-5.02,2.23-7.86,6.76-7.86c4.7,0,6.84,2.81,6.84,8.18v1.16
				H316.74z M325.03,98.82c0-1.94-0.41-4.64-4.12-4.64c-3.65,0-4.15,2.7-4.15,4.64v0.29h8.27V98.82z"/>
			<path class="st0" d="M341.16,108.27v-0.81c-1.07,0.64-2.61,1.22-4.47,1.22c-3.74,0-5.95-2.12-5.95-6.82v-2.76
				c0-5.71,2.87-7.19,6.58-7.19c1.28,0,2.47,0.14,3.74,0.41v-6.5h2.61v22.45H341.16z M341.07,94.49c-1.31-0.23-2.7-0.38-3.57-0.38
				c-2.58,0-4.15,0.73-4.15,4.99v2.76c0,3.16,1.16,4.58,3.83,4.58c1.42,0,2.7-0.41,3.89-0.99V94.49z"/>
			<path class="st0" d="M371.49,108.27V97.69c0-2.23,0-3.54-2.38-3.54c-1.1,0-2.64,0.52-4.03,1.33c0.12,0.75,0.12,1.51,0.12,2.21
				v10.59h-2.61V97.69c0-2.23,0-3.54-2.18-3.54c-1.39,0-2.99,0.72-4.15,1.39v12.73h-2.58V92.32h2.58v1.25
				c1.3-0.96,2.96-1.65,4.76-1.65c1.86,0,2.9,0.67,3.51,1.71c1.86-1.22,3.48-1.71,4.93-1.71c4.64,0,4.64,3.31,4.64,5.77v10.59
				H371.49z"/>
			<path class="st0" d="M384.42,108.68c-4.47,0-6.79-2.58-6.79-7.22v-2.32c0-4.64,2.32-7.22,6.79-7.22c4.5,0,6.82,2.58,6.82,7.22
				v2.32C391.24,106.1,388.92,108.68,384.42,108.68z M388.63,99.14c0-3.45-1.28-4.93-4.21-4.93c-2.87,0-4.18,1.48-4.18,4.93v2.32
				c0,3.45,1.28,4.93,4.18,4.93c2.93,0,4.21-1.48,4.21-4.93V99.14z"/>
			<path class="st0" d="M404.71,108.27v-0.81c-1.07,0.64-2.61,1.22-4.47,1.22c-3.74,0-5.95-2.12-5.95-6.82v-2.76
				c0-5.71,2.87-7.19,6.58-7.19c1.28,0,2.47,0.14,3.74,0.41v-6.5h2.61v22.45H404.71z M404.63,94.49c-1.31-0.23-2.7-0.38-3.57-0.38
				c-2.58,0-4.15,0.73-4.15,4.99v2.76c0,3.16,1.16,4.58,3.83,4.58c1.42,0,2.7-0.41,3.89-0.99V94.49z"/>
			<path class="st0" d="M421.51,108.27v-1.25c-2.12,1.07-3.92,1.65-5.54,1.65c-3.94,0-4.73-2.73-4.73-6.18V92.32h2.58v10.18
				c0,2.9,0.46,3.95,2.7,3.95c1.25,0,2.87-0.49,4.99-1.42v-12.7h2.61v15.95H421.51z"/>
			<path class="st0" d="M428.27,108.27V85.82h2.58v22.45H428.27z"/>
			<path class="st0" d="M443.99,108.27v-1.07c-0.96,0.67-2.7,1.48-5.08,1.48c-2.99,0-4.76-1.33-4.76-4.53v-0.58
				c0-4.21,2.87-4.93,7.34-4.93h2.38v-1.16c0-2.76-0.55-3.37-3.74-3.37c-1.77,0-3.19,0.15-4.93,0.35v-1.86
				c0.46-0.17,2.67-0.7,5.13-0.7c5.31,0,6.15,1.94,6.15,5.57v10.79H443.99z M443.87,100.62h-2.38c-3.37,0-4.73,0.41-4.73,2.96v0.78
				c0,1.8,1.1,2.29,2.67,2.29c1.89,0,3.77-0.84,4.44-1.28V100.62z"/>
			<path class="st0" d="M453.01,95.6v12.68h-2.58V92.32h2.55v1.28c1.51-1.19,3.45-1.68,5.69-1.68v2.32
				C456.58,94.23,454.23,94.81,453.01,95.6z"/>
			<path class="st0" d="M66.64,142.27v-1.07c-0.96,0.67-2.7,1.48-5.08,1.48c-2.99,0-4.76-1.33-4.76-4.53v-0.58
				c0-4.21,2.87-4.93,7.34-4.93h2.38v-1.16c0-2.75-0.55-3.36-3.74-3.36c-1.77,0-3.19,0.14-4.93,0.35v-1.86
				c0.46-0.17,2.67-0.7,5.13-0.7c5.31,0,6.15,1.94,6.15,5.57v10.79H66.64z M66.53,134.62h-2.38c-3.37,0-4.73,0.41-4.73,2.96v0.78
				c0,1.8,1.1,2.29,2.67,2.29c1.89,0,3.77-0.84,4.44-1.28V134.62z"/>
			<path class="st0" d="M83.35,142.27v-10.18c0-2.9-0.46-3.94-2.67-3.94c-1.25,0-2.9,0.49-5.02,1.42v12.71h-2.58v-15.95h2.58v1.25
				c1.86-0.96,3.54-1.65,5.31-1.65c4.24,0,4.99,2.29,4.99,6.18v10.18H83.35z"/>
			<path class="st0" d="M99.92,142.27v-0.81c-1.07,0.64-2.61,1.22-4.47,1.22c-3.74,0-5.95-2.12-5.95-6.82v-2.76
				c0-5.71,2.87-7.19,6.58-7.19c1.28,0,2.47,0.15,3.74,0.41v-6.5h2.61v22.45H99.92z M99.83,128.49c-1.31-0.23-2.7-0.38-3.57-0.38
				c-2.58,0-4.15,0.72-4.15,4.99v2.76c0,3.16,1.16,4.58,3.83,4.58c1.42,0,2.7-0.41,3.89-0.99V128.49z"/>
			<path class="st0" d="M117.09,142.68c-2.23,0-4.7-0.46-5.22-0.64v-2c0.96,0.09,3.22,0.41,5.13,0.41c2.73,0,3.42-0.75,3.42-2.15
				c0-1.42-0.49-1.86-3.22-3.02l-1.16-0.49c-3.07-1.31-4.38-2.61-4.38-4.9c0-2.67,1.77-3.97,5.77-3.97c2.15,0,4.24,0.38,4.82,0.58
				v1.94c-1.68-0.17-3.6-0.29-4.7-0.29c-2.32,0-3.28,0.29-3.28,1.74c0,1.25,0.52,1.77,2.79,2.76l1.16,0.49
				c3.71,1.65,4.82,2.64,4.82,5.1C123.03,140.53,121.81,142.68,117.09,142.68z"/>
			<path class="st0" d="M143.95,142.27v-10.59c0-2.23,0-3.54-2.38-3.54c-1.1,0-2.64,0.52-4.03,1.33c0.12,0.75,0.12,1.51,0.12,2.2
				v10.59h-2.61v-10.59c0-2.23,0-3.54-2.18-3.54c-1.39,0-2.99,0.72-4.15,1.39v12.73h-2.58v-15.95h2.58v1.25
				c1.3-0.96,2.96-1.65,4.76-1.65c1.86,0,2.9,0.67,3.51,1.71c1.86-1.22,3.48-1.71,4.93-1.71c4.64,0,4.64,3.31,4.64,5.77v10.59
				H143.95z"/>
			<path class="st0" d="M159.64,142.27v-1.07c-0.96,0.67-2.7,1.48-5.08,1.48c-2.99,0-4.76-1.33-4.76-4.53v-0.58
				c0-4.21,2.87-4.93,7.34-4.93h2.38v-1.16c0-2.75-0.55-3.36-3.74-3.36c-1.77,0-3.19,0.14-4.93,0.35v-1.86
				c0.46-0.17,2.67-0.7,5.13-0.7c5.31,0,6.15,1.94,6.15,5.57v10.79H159.64z M159.53,134.62h-2.38c-3.37,0-4.73,0.41-4.73,2.96v0.78
				c0,1.8,1.1,2.29,2.67,2.29c1.89,0,3.77-0.84,4.44-1.28V134.62z"/>
			<path class="st0" d="M168.67,129.6v12.68h-2.58v-15.95h2.55v1.28c1.51-1.19,3.45-1.68,5.69-1.68v2.32
				C172.23,128.23,169.88,128.81,168.67,129.6z"/>
			<path class="st0" d="M183.49,142.68c-2.9,0-3.94-1.04-3.94-4.06v-10.12l-3.22-0.23v-1.94h3.22v-4.15h2.61v4.15h4.26v2.18h-4.26
				v10.01c0,1.8,0.14,2.09,1.62,2.09c0.9,0,2.15-0.09,2.64-0.14v1.8C185.99,142.39,184.71,142.68,183.49,142.68z"/>
			<path class="st0" d="M199.7,142.68c-2.23,0-4.7-0.46-5.22-0.64v-2c0.96,0.09,3.22,0.41,5.13,0.41c2.73,0,3.42-0.75,3.42-2.15
				c0-1.42-0.49-1.86-3.22-3.02l-1.16-0.49c-3.07-1.31-4.38-2.61-4.38-4.9c0-2.67,1.77-3.97,5.77-3.97c2.15,0,4.24,0.38,4.82,0.58
				v1.94c-1.68-0.17-3.6-0.29-4.7-0.29c-2.32,0-3.28,0.29-3.28,1.74c0,1.25,0.52,1.77,2.79,2.76l1.16,0.49
				c3.71,1.65,4.82,2.64,4.82,5.1C205.65,140.53,204.43,142.68,199.7,142.68z"/>
			<path class="st0" d="M214.77,142.68c-2.9,0-3.94-1.04-3.94-4.06v-10.12l-3.22-0.23v-1.94h3.22v-4.15h2.61v4.15h4.26v2.18h-4.26
				v10.01c0,1.8,0.14,2.09,1.62,2.09c0.9,0,2.15-0.09,2.64-0.14v1.8C217.27,142.39,215.99,142.68,214.77,142.68z"/>
			<path class="st0" d="M226.68,142.68c-4.47,0-6.79-2.58-6.79-7.22v-2.32c0-4.64,2.32-7.22,6.79-7.22c4.5,0,6.82,2.58,6.82,7.22
				v2.32C233.5,140.1,231.18,142.68,226.68,142.68z M230.89,133.14c0-3.45-1.28-4.93-4.21-4.93c-2.87,0-4.18,1.48-4.18,4.93v2.32
				c0,3.45,1.28,4.93,4.18,4.93c2.93,0,4.21-1.48,4.21-4.93V133.14z"/>
			<path class="st0" d="M239.62,129.6v12.68h-2.58v-15.95h2.55v1.28c1.51-1.19,3.45-1.68,5.69-1.68v2.32
				C243.19,128.23,240.84,128.81,239.62,129.6z"/>
			<path class="st0" d="M256.93,142.27v-1.07c-0.96,0.67-2.7,1.48-5.08,1.48c-2.99,0-4.76-1.33-4.76-4.53v-0.58
				c0-4.21,2.87-4.93,7.34-4.93h2.38v-1.16c0-2.75-0.55-3.36-3.74-3.36c-1.77,0-3.19,0.14-4.93,0.35v-1.86
				c0.46-0.17,2.67-0.7,5.13-0.7c5.31,0,6.15,1.94,6.15,5.57v10.79H256.93z M256.82,134.62h-2.38c-3.37,0-4.73,0.41-4.73,2.96v0.78
				c0,1.8,1.1,2.29,2.67,2.29c1.89,0,3.77-0.84,4.44-1.28V134.62z"/>
			<path class="st0" d="M269.66,148.74c-2.44,0-5.37-0.46-5.86-0.58v-1.89c1.74,0.12,3.83,0.23,5.86,0.23
				c3.16,0,3.54-1.13,3.54-3.34v-0.81c-0.52,0.09-2.03,0.29-3.22,0.29c-4.5,0-7.11-1.8-7.11-7.37v-2c0-4.9,2.06-7.37,7.19-7.37
				c1.89,0,4.15,0.2,5.74,0.41v16.85C275.8,146.45,274.76,148.74,269.66,148.74z M273.19,128.32c-0.32-0.06-1.68-0.2-3.13-0.2
				c-3.6,0-4.58,1.71-4.58,5.16v2c0,4,1.28,5.16,4.53,5.16c1.19,0,2.78-0.17,3.19-0.26V128.32z"/>
			<path class="st0" d="M281.95,135.25v0.32c0,2.75,0.41,4.84,4.82,4.84c1.77,0,4.06-0.2,5.57-0.46v2.09
				c-1.1,0.29-3.05,0.64-5.69,0.64c-5.66,0-7.31-2.52-7.31-7.69v-1.22c0-5.02,2.23-7.86,6.76-7.86c4.7,0,6.85,2.81,6.85,8.18v1.16
				H281.95z M290.25,132.82c0-1.94-0.41-4.64-4.12-4.64c-3.65,0-4.15,2.7-4.15,4.64v0.29h8.27V132.82z"/>
			<path class="st0" d="M306.95,142.68c-2.23,0-4.7-0.46-5.22-0.64v-2c0.96,0.09,3.22,0.41,5.13,0.41c2.73,0,3.42-0.75,3.42-2.15
				c0-1.42-0.49-1.86-3.22-3.02l-1.16-0.49c-3.07-1.31-4.38-2.61-4.38-4.9c0-2.67,1.77-3.97,5.77-3.97c2.15,0,4.24,0.38,4.82,0.58
				v1.94c-1.68-0.17-3.6-0.29-4.7-0.29c-2.32,0-3.28,0.29-3.28,1.74c0,1.25,0.52,1.77,2.79,2.76l1.16,0.49
				c3.71,1.65,4.82,2.64,4.82,5.1C312.9,140.53,311.68,142.68,306.95,142.68z"/>
			<path class="st0" d="M322.42,142.68c-4.47,0-6.79-2.58-6.79-7.22v-2.32c0-4.64,2.32-7.22,6.79-7.22c4.5,0,6.82,2.58,6.82,7.22
				v2.32C329.24,140.1,326.92,142.68,322.42,142.68z M326.63,133.14c0-3.45-1.28-4.93-4.21-4.93c-2.87,0-4.18,1.48-4.18,4.93v2.32
				c0,3.45,1.28,4.93,4.18,4.93c2.93,0,4.21-1.48,4.21-4.93V133.14z"/>
			<path class="st0" d="M332.91,142.27v-22.45h2.58v22.45H332.91z"/>
			<path class="st0" d="M349.83,142.27v-1.25c-2.12,1.07-3.92,1.65-5.54,1.65c-3.94,0-4.73-2.73-4.73-6.18v-10.18h2.58v10.18
				c0,2.9,0.46,3.95,2.7,3.95c1.25,0,2.87-0.49,4.99-1.42v-12.71h2.61v15.95H349.83z"/>
			<path class="st0" d="M362.5,142.68c-2.9,0-3.94-1.04-3.94-4.06v-10.12l-3.22-0.23v-1.94h3.22v-4.15h2.61v4.15h4.26v2.18h-4.26
				v10.01c0,1.8,0.14,2.09,1.62,2.09c0.9,0,2.15-0.09,2.64-0.14v1.8C365,142.39,363.72,142.68,362.5,142.68z"/>
			<path class="st0" d="M368.47,123.36v-3.54h2.64v3.54H368.47z M368.47,142.27v-15.95h2.61v15.95H368.47z"/>
			<path class="st0" d="M381.44,142.68c-4.47,0-6.79-2.58-6.79-7.22v-2.32c0-4.64,2.32-7.22,6.79-7.22c4.5,0,6.82,2.58,6.82,7.22
				v2.32C388.26,140.1,385.94,142.68,381.44,142.68z M385.65,133.14c0-3.45-1.28-4.93-4.21-4.93c-2.87,0-4.18,1.48-4.18,4.93v2.32
				c0,3.45,1.28,4.93,4.18,4.93c2.93,0,4.21-1.48,4.21-4.93V133.14z"/>
			<path class="st0" d="M402.06,142.27v-10.18c0-2.9-0.46-3.94-2.67-3.94c-1.25,0-2.9,0.49-5.02,1.42v12.71h-2.58v-15.95h2.58v1.25
				c1.86-0.96,3.54-1.65,5.31-1.65c4.24,0,4.99,2.29,4.99,6.18v10.18H402.06z"/>
			<path class="st0" d="M409.5,144.86h-2.38l2.7-6.58h3.05L409.5,144.86z"/>
			<path class="st0" d="M63.74,176.68c-4.47,0-6.79-2.58-6.79-7.22v-2.32c0-4.64,2.32-7.22,6.79-7.22c4.5,0,6.82,2.58,6.82,7.22
				v2.32C70.56,174.1,68.24,176.68,63.74,176.68z M67.95,167.14c0-3.45-1.28-4.93-4.21-4.93c-2.87,0-4.18,1.48-4.18,4.93v2.32
				c0,3.45,1.28,4.93,4.18,4.93c2.93,0,4.21-1.48,4.21-4.93V167.14z"/>
			<path class="st0" d="M80.25,176.68c-1.07,0-2.58-0.2-3.57-0.46v6.15H74.1v-22.05h2.5v1.07c1.42-0.99,3.1-1.48,4.64-1.48
				c3.66,0,5.77,2.06,5.77,7.43v1.57C87.01,175.05,84.08,176.68,80.25,176.68z M84.42,167.34c0-3.92-1.22-5.13-3.6-5.13
				c-1.25,0-2.26,0.26-4.15,1.19v10.65c1.3,0.26,2.49,0.43,3.57,0.43c2.55,0,4.18-0.9,4.18-5.57V167.34z"/>
			<path class="st0" d="M96.34,176.68c-2.9,0-3.94-1.04-3.94-4.06v-10.12l-3.22-0.23v-1.94h3.22v-4.15H95v4.15h4.26v2.18H95v10.01
				c0,1.8,0.14,2.09,1.62,2.09c0.9,0,2.15-0.09,2.64-0.14v1.8C98.83,176.39,97.56,176.68,96.34,176.68z"/>
			<path class="st0" d="M102.3,157.36v-3.54h2.64v3.54H102.3z M102.3,176.27v-15.95h2.61v15.95H102.3z"/>
			<path class="st0" d="M126.84,176.27v-10.59c0-2.23,0-3.54-2.38-3.54c-1.1,0-2.64,0.52-4.03,1.33c0.12,0.75,0.12,1.51,0.12,2.2
				v10.59h-2.61v-10.59c0-2.23,0-3.54-2.18-3.54c-1.39,0-2.99,0.72-4.15,1.39v12.73h-2.58v-15.95h2.58v1.25
				c1.3-0.96,2.96-1.65,4.76-1.65c1.86,0,2.9,0.67,3.51,1.71c1.86-1.22,3.48-1.71,4.93-1.71c4.64,0,4.64,3.31,4.64,5.77v10.59
				H126.84z"/>
			<path class="st0" d="M133.59,157.36v-3.54h2.64v3.54H133.59z M133.59,176.27v-15.95h2.61v15.95H133.59z"/>
			<path class="st0" d="M139.37,176.27v-2.93l8.88-10.85h-8.5v-2.18h11.28v2.7l-9.02,11.11h9.05v2.15H139.37z"/>
			<path class="st0" d="M156.15,169.25v0.32c0,2.75,0.41,4.84,4.82,4.84c1.77,0,4.06-0.2,5.57-0.46v2.09
				c-1.1,0.29-3.05,0.64-5.69,0.64c-5.66,0-7.31-2.52-7.31-7.69v-1.22c0-5.02,2.23-7.86,6.76-7.86c4.7,0,6.85,2.81,6.85,8.18v1.16
				H156.15z M164.44,166.82c0-1.94-0.41-4.64-4.12-4.64c-3.65,0-4.15,2.7-4.15,4.64v0.29h8.27V166.82z"/>
			<path class="st0" d="M180.57,176.27v-0.81c-1.07,0.64-2.61,1.22-4.47,1.22c-3.74,0-5.95-2.12-5.95-6.82v-2.76
				c0-5.71,2.87-7.19,6.58-7.19c1.28,0,2.47,0.15,3.74,0.41v-6.5h2.61v22.45H180.57z M180.48,162.49c-1.31-0.23-2.7-0.38-3.57-0.38
				c-2.58,0-4.15,0.72-4.15,4.99v2.76c0,3.16,1.16,4.58,3.83,4.58c1.42,0,2.7-0.41,3.89-0.99V162.49z"/>
			<path class="st0" d="M197.06,162.49v13.78h-2.61v-13.78l-3.02-0.23v-1.94h3.02v-1.91c0-2.47,0.35-4.96,4.12-4.96
				c1.25,0,2.35,0.2,3.08,0.41v1.77c-0.7-0.03-1.74-0.12-2.73-0.12c-1.77,0-1.86,0.87-1.86,2.9v1.91h4.53v2.18H197.06z"/>
			<path class="st0" d="M210.6,176.68c-4.47,0-6.79-2.58-6.79-7.22v-2.32c0-4.64,2.32-7.22,6.79-7.22c4.5,0,6.82,2.58,6.82,7.22
				v2.32C217.42,174.1,215.1,176.68,210.6,176.68z M214.81,167.14c0-3.45-1.28-4.93-4.21-4.93c-2.87,0-4.18,1.48-4.18,4.93v2.32
				c0,3.45,1.28,4.93,4.18,4.93c2.93,0,4.21-1.48,4.21-4.93V167.14z"/>
			<path class="st0" d="M223.54,163.6v12.68h-2.58v-15.95h2.55v1.28c1.51-1.19,3.45-1.68,5.69-1.68v2.32
				C227.1,162.23,224.75,162.81,223.54,163.6z"/>
			<path class="st0" d="M255.21,176.27v-10.59c0-2.23,0-3.54-2.38-3.54c-1.1,0-2.64,0.52-4.03,1.33c0.12,0.75,0.12,1.51,0.12,2.2
				v10.59h-2.61v-10.59c0-2.23,0-3.54-2.18-3.54c-1.39,0-2.99,0.72-4.15,1.39v12.73h-2.58v-15.95h2.58v1.25
				c1.3-0.96,2.96-1.65,4.76-1.65c1.86,0,2.9,0.67,3.51,1.71c1.86-1.22,3.48-1.71,4.93-1.71c4.64,0,4.64,3.31,4.64,5.77v10.59
				H255.21z"/>
			<path class="st0" d="M270.9,176.27v-1.07c-0.96,0.67-2.7,1.48-5.08,1.48c-2.99,0-4.76-1.33-4.76-4.53v-0.58
				c0-4.21,2.87-4.93,7.34-4.93h2.38v-1.16c0-2.75-0.55-3.36-3.74-3.36c-1.77,0-3.19,0.14-4.93,0.35v-1.86
				c0.46-0.17,2.67-0.7,5.13-0.7c5.31,0,6.15,1.94,6.15,5.57v10.79H270.9z M270.78,168.62h-2.38c-3.37,0-4.73,0.41-4.73,2.96v0.78
				c0,1.8,1.1,2.29,2.67,2.29c1.89,0,3.77-0.84,4.44-1.28V168.62z"/>
			<path class="st0" d="M281.82,168.15l-5.34-7.83h2.93l3.95,5.8l3.86-5.8h2.9l-5.39,7.8l5.6,8.15h-2.93l-4.18-6.09l-4.12,6.09
				h-2.93L281.82,168.15z"/>
			<path class="st0" d="M293.27,157.36v-3.54h2.64v3.54H293.27z M293.27,176.27v-15.95h2.61v15.95H293.27z"/>
			<path class="st0" d="M317.81,176.27v-10.59c0-2.23,0-3.54-2.38-3.54c-1.1,0-2.64,0.52-4.03,1.33c0.12,0.75,0.12,1.51,0.12,2.2
				v10.59h-2.61v-10.59c0-2.23,0-3.54-2.18-3.54c-1.39,0-2.99,0.72-4.15,1.39v12.73H300v-15.95h2.58v1.25
				c1.3-0.96,2.96-1.65,4.76-1.65c1.86,0,2.9,0.67,3.51,1.71c1.86-1.22,3.48-1.71,4.93-1.71c4.64,0,4.64,3.31,4.64,5.77v10.59
				H317.81z"/>
			<path class="st0" d="M324.56,157.36v-3.54h2.64v3.54H324.56z M324.56,176.27v-15.95h2.61v15.95H324.56z"/>
			<path class="st0" d="M330.33,176.27v-2.93l8.88-10.85h-8.5v-2.18h11.28v2.7l-9.02,11.11h9.05v2.15H330.33z"/>
			<path class="st0" d="M347.11,169.25v0.32c0,2.75,0.41,4.84,4.82,4.84c1.77,0,4.06-0.2,5.57-0.46v2.09
				c-1.1,0.29-3.05,0.64-5.69,0.64c-5.66,0-7.31-2.52-7.31-7.69v-1.22c0-5.02,2.23-7.86,6.76-7.86c4.7,0,6.85,2.81,6.85,8.18v1.16
				H347.11z M355.41,166.82c0-1.94-0.41-4.64-4.12-4.64c-3.65,0-4.15,2.7-4.15,4.64v0.29h8.27V166.82z"/>
			<path class="st0" d="M371.53,176.27v-0.81c-1.07,0.64-2.61,1.22-4.47,1.22c-3.74,0-5.95-2.12-5.95-6.82v-2.76
				c0-5.71,2.87-7.19,6.58-7.19c1.28,0,2.47,0.15,3.74,0.41v-6.5h2.61v22.45H371.53z M371.44,162.49c-1.31-0.23-2.7-0.38-3.57-0.38
				c-2.58,0-4.15,0.72-4.15,4.99v2.76c0,3.16,1.16,4.58,3.83,4.58c1.42,0,2.7-0.41,3.89-0.99V162.49z"/>
			<path class="st0" d="M63.34,210.68c-4.35,0-6.38-2.64-6.38-7.19v-2.41c0-4.58,2.03-7.17,6.38-7.17c2.32,0,4,0.38,4.55,0.55v1.97
				c-1.94-0.2-3.34-0.29-4.18-0.29c-2.55,0-4.15,0.96-4.15,4.93v2.41c0,3.97,1.6,4.96,4.15,4.96c0.84,0,2.23-0.09,4.18-0.29v1.97
				C67.34,210.3,65.66,210.68,63.34,210.68z"/>
			<path class="st0" d="M80.43,210.27v-1.07c-0.96,0.67-2.7,1.48-5.08,1.48c-2.99,0-4.76-1.33-4.76-4.53v-0.58
				c0-4.21,2.87-4.93,7.34-4.93h2.38v-1.16c0-2.75-0.55-3.36-3.74-3.36c-1.77,0-3.19,0.14-4.93,0.35v-1.86
				c0.46-0.17,2.67-0.7,5.13-0.7c5.31,0,6.15,1.94,6.15,5.57v10.79H80.43z M80.32,202.62h-2.38c-3.37,0-4.73,0.41-4.73,2.96v0.78
				c0,1.8,1.1,2.29,2.67,2.29c1.89,0,3.77-0.84,4.44-1.28V202.62z"/>
			<path class="st0" d="M93.02,210.68c-1.07,0-2.58-0.2-3.57-0.46v6.15h-2.58v-22.05h2.5v1.07c1.42-0.99,3.1-1.48,4.64-1.48
				c3.66,0,5.77,2.06,5.77,7.43v1.57C99.78,209.05,96.85,210.68,93.02,210.68z M97.2,201.34c0-3.92-1.22-5.13-3.6-5.13
				c-1.25,0-2.26,0.26-4.15,1.19v10.65c1.3,0.26,2.49,0.43,3.57,0.43c2.55,0,4.18-0.9,4.18-5.57V201.34z"/>
			<path class="st0" d="M112.52,210.27v-1.07c-0.96,0.67-2.7,1.48-5.08,1.48c-2.99,0-4.76-1.33-4.76-4.53v-0.58
				c0-4.21,2.87-4.93,7.34-4.93h2.38v-1.16c0-2.75-0.55-3.36-3.74-3.36c-1.77,0-3.19,0.14-4.93,0.35v-1.86
				c0.46-0.17,2.67-0.7,5.13-0.7c5.31,0,6.15,1.94,6.15,5.57v10.79H112.52z M112.41,202.62h-2.38c-3.37,0-4.73,0.41-4.73,2.96v0.78
				c0,1.8,1.1,2.29,2.67,2.29c1.89,0,3.77-0.84,4.44-1.28V202.62z"/>
			<path class="st0" d="M124.84,210.68c-4.35,0-6.38-2.64-6.38-7.19v-2.41c0-4.58,2.03-7.17,6.38-7.17c2.32,0,4,0.38,4.55,0.55v1.97
				c-1.94-0.2-3.34-0.29-4.18-0.29c-2.55,0-4.15,0.96-4.15,4.93v2.41c0,3.97,1.6,4.96,4.15,4.96c0.84,0,2.23-0.09,4.18-0.29v1.97
				C128.84,210.3,127.16,210.68,124.84,210.68z"/>
			<path class="st0" d="M132.66,191.36v-3.54h2.64v3.54H132.66z M132.66,210.27v-15.95h2.61v15.95H132.66z"/>
			<path class="st0" d="M145.39,210.68c-2.9,0-3.94-1.04-3.94-4.06v-10.12l-3.22-0.23v-1.94h3.22v-4.15h2.61v4.15h4.26v2.18h-4.26
				v10.01c0,1.8,0.14,2.09,1.62,2.09c0.9,0,2.15-0.09,2.64-0.14v1.8C147.88,210.39,146.6,210.68,145.39,210.68z"/>
			<path class="st0" d="M158.9,211.69c-1.07,3.08-2.09,5.05-5.37,5.05c-1.36,0-2.55-0.17-3.1-0.29v-2c1.25,0.09,1.97,0.12,3.02,0.12
				c1.57,0,2-0.81,2.87-3.13l0.43-1.16l-6.18-15.95h2.87l3.25,8.96c0.49,1.42,0.81,2.52,1.33,4.23c0.41-1.71,0.73-2.78,1.22-4.26
				l2.93-8.93h2.78L158.9,211.69z"/>
			<path class="st0" d="M166.61,212.86h-2.38l2.7-6.58h3.05L166.61,212.86z"/>
			<path class="st0" d="M188.36,210.27v-1.07c-0.96,0.67-2.7,1.48-5.08,1.48c-2.99,0-4.76-1.33-4.76-4.53v-0.58
				c0-4.21,2.87-4.93,7.34-4.93h2.38v-1.16c0-2.75-0.55-3.36-3.74-3.36c-1.77,0-3.19,0.14-4.93,0.35v-1.86
				c0.46-0.17,2.67-0.7,5.13-0.7c5.31,0,6.15,1.94,6.15,5.57v10.79H188.36z M188.24,202.62h-2.38c-3.37,0-4.73,0.41-4.73,2.96v0.78
				c0,1.8,1.1,2.29,2.67,2.29c1.89,0,3.77-0.84,4.44-1.28V202.62z"/>
			<path class="st0" d="M205.07,210.27v-10.18c0-2.9-0.46-3.94-2.67-3.94c-1.25,0-2.9,0.49-5.02,1.42v12.71h-2.58v-15.95h2.58v1.25
				c1.86-0.96,3.54-1.65,5.31-1.65c4.24,0,4.99,2.29,4.99,6.18v10.18H205.07z"/>
			<path class="st0" d="M221.63,210.27v-0.81c-1.07,0.64-2.61,1.22-4.47,1.22c-3.74,0-5.95-2.12-5.95-6.82v-2.76
				c0-5.71,2.87-7.19,6.58-7.19c1.28,0,2.47,0.15,3.74,0.41v-6.5h2.61v22.45H221.63z M221.55,196.49c-1.31-0.23-2.7-0.38-3.57-0.38
				c-2.58,0-4.15,0.72-4.15,4.99v2.76c0,3.16,1.16,4.58,3.83,4.58c1.42,0,2.7-0.41,3.89-0.99V196.49z"/>
			<path class="st0" d="M240.31,210.68c-1.07,0-2.58-0.2-3.57-0.46v6.15h-2.58v-22.05h2.5v1.07c1.42-0.99,3.1-1.48,4.64-1.48
				c3.66,0,5.77,2.06,5.77,7.43v1.57C247.07,209.05,244.14,210.68,240.31,210.68z M244.48,201.34c0-3.92-1.22-5.13-3.6-5.13
				c-1.25,0-2.26,0.26-4.15,1.19v10.65c1.3,0.26,2.49,0.43,3.57,0.43c2.55,0,4.18-0.9,4.18-5.57V201.34z"/>
			<path class="st0" d="M252.69,203.25v0.32c0,2.75,0.41,4.84,4.82,4.84c1.77,0,4.06-0.2,5.57-0.46v2.09
				c-1.1,0.29-3.05,0.64-5.69,0.64c-5.66,0-7.31-2.52-7.31-7.69v-1.22c0-5.02,2.23-7.86,6.76-7.86c4.7,0,6.84,2.81,6.84,8.18v1.16
				H252.69z M260.98,200.82c0-1.94-0.41-4.64-4.12-4.64c-3.65,0-4.15,2.7-4.15,4.64v0.29h8.27V200.82z"/>
			<path class="st0" d="M269.68,197.6v12.68h-2.58v-15.95h2.55v1.28c1.51-1.19,3.45-1.68,5.69-1.68v2.32
				C273.25,196.23,270.9,196.81,269.68,197.6z"/>
			<path class="st0" d="M282.9,196.49v13.78h-2.61v-13.78l-3.02-0.23v-1.94h3.02v-1.91c0-2.47,0.35-4.96,4.12-4.96
				c1.25,0,2.35,0.2,3.08,0.41v1.77c-0.7-0.03-1.74-0.12-2.73-0.12c-1.77,0-1.86,0.87-1.86,2.9v1.91h4.53v2.18H282.9z"/>
			<path class="st0" d="M296.43,210.68c-4.47,0-6.79-2.58-6.79-7.22v-2.32c0-4.64,2.32-7.22,6.79-7.22c4.5,0,6.82,2.58,6.82,7.22
				v2.32C303.25,208.1,300.93,210.68,296.43,210.68z M300.64,201.14c0-3.45-1.28-4.93-4.21-4.93c-2.87,0-4.18,1.48-4.18,4.93v2.32
				c0,3.45,1.28,4.93,4.18,4.93c2.93,0,4.21-1.48,4.21-4.93V201.14z"/>
			<path class="st0" d="M309.37,197.6v12.68h-2.58v-15.95h2.55v1.28c1.51-1.19,3.45-1.68,5.69-1.68v2.32
				C312.94,196.23,310.59,196.81,309.37,197.6z"/>
			<path class="st0" d="M335.58,210.27v-10.59c0-2.23,0-3.54-2.38-3.54c-1.1,0-2.64,0.52-4.03,1.33c0.12,0.75,0.12,1.51,0.12,2.2
				v10.59h-2.61v-10.59c0-2.23,0-3.54-2.18-3.54c-1.39,0-2.99,0.72-4.15,1.39v12.73h-2.58v-15.95h2.58v1.25
				c1.3-0.96,2.96-1.65,4.76-1.65c1.86,0,2.9,0.67,3.51,1.71c1.86-1.22,3.48-1.71,4.93-1.71c4.64,0,4.64,3.31,4.64,5.77v10.59
				H335.58z"/>
			<path class="st0" d="M351.27,210.27v-1.07c-0.96,0.67-2.7,1.48-5.08,1.48c-2.99,0-4.76-1.33-4.76-4.53v-0.58
				c0-4.21,2.87-4.93,7.34-4.93h2.38v-1.16c0-2.75-0.55-3.36-3.74-3.36c-1.77,0-3.19,0.14-4.93,0.35v-1.86
				c0.46-0.17,2.67-0.7,5.13-0.7c5.31,0,6.15,1.94,6.15,5.57v10.79H351.27z M351.15,202.62h-2.38c-3.37,0-4.73,0.41-4.73,2.96v0.78
				c0,1.8,1.1,2.29,2.67,2.29c1.89,0,3.77-0.84,4.44-1.28V202.62z"/>
			<path class="st0" d="M367.98,210.27v-10.18c0-2.9-0.46-3.94-2.67-3.94c-1.25,0-2.9,0.49-5.02,1.42v12.71h-2.58v-15.95h2.58v1.25
				c1.86-0.96,3.54-1.65,5.31-1.65c4.24,0,4.99,2.29,4.99,6.18v10.18H367.98z"/>
			<path class="st0" d="M380.48,210.68c-4.35,0-6.38-2.64-6.38-7.19v-2.41c0-4.58,2.03-7.17,6.38-7.17c2.32,0,4,0.38,4.55,0.55v1.97
				c-1.94-0.2-3.34-0.29-4.18-0.29c-2.55,0-4.15,0.96-4.15,4.93v2.41c0,3.97,1.6,4.96,4.15,4.96c0.84,0,2.23-0.09,4.18-0.29v1.97
				C384.48,210.3,382.8,210.68,380.48,210.68z"/>
			<path class="st0" d="M390.1,203.25v0.32c0,2.75,0.41,4.84,4.82,4.84c1.77,0,4.06-0.2,5.57-0.46v2.09
				c-1.1,0.29-3.05,0.64-5.69,0.64c-5.66,0-7.31-2.52-7.31-7.69v-1.22c0-5.02,2.23-7.86,6.76-7.86c4.7,0,6.85,2.81,6.85,8.18v1.16
				H390.1z M398.39,200.82c0-1.94-0.41-4.64-4.12-4.64c-3.65,0-4.15,2.7-4.15,4.64v0.29h8.27V200.82z"/>
			<path class="st0" d="M405.26,212.86h-2.38l2.7-6.58h3.05L405.26,212.86z"/>
			<path class="st0" d="M63.25,244.68c-2.9,0-3.94-1.04-3.94-4.06v-10.12l-3.22-0.23v-1.94h3.22v-4.15h2.61v4.15h4.26v2.18h-4.26
				v10.01c0,1.8,0.14,2.09,1.62,2.09c0.9,0,2.15-0.09,2.64-0.14v1.8C65.74,244.39,64.47,244.68,63.25,244.68z"/>
			<path class="st0" d="M78.47,244.27v-1.07c-0.96,0.67-2.7,1.48-5.08,1.48c-2.99,0-4.76-1.33-4.76-4.53v-0.58
				c0-4.21,2.87-4.93,7.34-4.93h2.38v-1.16c0-2.75-0.55-3.36-3.74-3.36c-1.77,0-3.19,0.14-4.93,0.35v-1.86
				c0.46-0.17,2.67-0.7,5.13-0.7c5.31,0,6.15,1.94,6.15,5.57v10.79H78.47z M78.35,236.62h-2.38c-3.37,0-4.73,0.41-4.73,2.96v0.78
				c0,1.8,1.1,2.29,2.67,2.29c1.89,0,3.77-0.84,4.44-1.28V236.62z"/>
			<path class="st0" d="M84.99,225.36v-3.54h2.64v3.54H84.99z M84.99,244.27v-15.95h2.61v15.95H84.99z"/>
			<path class="st0" d="M91.81,244.27v-22.45h2.58v22.45H91.81z"/>
			<path class="st0" d="M104.82,244.68c-4.47,0-6.79-2.58-6.79-7.22v-2.32c0-4.64,2.32-7.22,6.79-7.22c4.5,0,6.82,2.58,6.82,7.22
				v2.32C111.63,242.1,109.31,244.68,104.82,244.68z M109.02,235.14c0-3.45-1.28-4.93-4.21-4.93c-2.87,0-4.18,1.48-4.18,4.93v2.32
				c0,3.45,1.28,4.93,4.18,4.93c2.93,0,4.21-1.48,4.21-4.93V235.14z"/>
			<path class="st0" d="M117.75,231.6v12.68h-2.58v-15.95h2.55v1.28c1.51-1.19,3.45-1.68,5.69-1.68v2.32
				C121.32,230.23,118.97,230.81,117.75,231.6z"/>
			<path class="st0" d="M127.87,237.25v0.32c0,2.75,0.41,4.84,4.82,4.84c1.77,0,4.06-0.2,5.57-0.46v2.09
				c-1.1,0.29-3.05,0.64-5.69,0.64c-5.66,0-7.31-2.52-7.31-7.69v-1.22c0-5.02,2.23-7.86,6.76-7.86c4.7,0,6.84,2.81,6.84,8.18v1.16
				H127.87z M136.16,234.82c0-1.94-0.41-4.64-4.12-4.64c-3.65,0-4.15,2.7-4.15,4.64v0.29h8.27V234.82z"/>
			<path class="st0" d="M152.28,244.27v-0.81c-1.07,0.64-2.61,1.22-4.47,1.22c-3.74,0-5.95-2.12-5.95-6.82v-2.76
				c0-5.71,2.87-7.19,6.58-7.19c1.28,0,2.47,0.15,3.74,0.41v-6.5h2.61v22.45H152.28z M152.2,230.49c-1.31-0.23-2.7-0.38-3.57-0.38
				c-2.58,0-4.15,0.72-4.15,4.99v2.76c0,3.16,1.16,4.58,3.83,4.58c1.42,0,2.7-0.41,3.89-0.99V230.49z"/>
			<path class="st0" d="M168.78,230.49v13.78h-2.61v-13.78l-3.02-0.23v-1.94h3.02v-1.91c0-2.47,0.35-4.96,4.12-4.96
				c1.25,0,2.35,0.2,3.08,0.41v1.77c-0.7-0.03-1.74-0.12-2.73-0.12c-1.77,0-1.86,0.87-1.86,2.9v1.91h4.53v2.18H168.78z"/>
			<path class="st0" d="M182.32,244.68c-4.47,0-6.79-2.58-6.79-7.22v-2.32c0-4.64,2.32-7.22,6.79-7.22c4.5,0,6.82,2.58,6.82,7.22
				v2.32C189.13,242.1,186.81,244.68,182.32,244.68z M186.52,235.14c0-3.45-1.28-4.93-4.21-4.93c-2.87,0-4.18,1.48-4.18,4.93v2.32
				c0,3.45,1.28,4.93,4.18,4.93c2.93,0,4.21-1.48,4.21-4.93V235.14z"/>
			<path class="st0" d="M195.25,231.6v12.68h-2.58v-15.95h2.55v1.28c1.51-1.19,3.45-1.68,5.69-1.68v2.32
				C198.82,230.23,196.47,230.81,195.25,231.6z"/>
			<path class="st0" d="M215.26,250.74c-2.44,0-5.37-0.46-5.86-0.58v-1.89c1.74,0.12,3.83,0.23,5.86,0.23
				c3.16,0,3.54-1.13,3.54-3.34v-0.81c-0.52,0.09-2.03,0.29-3.22,0.29c-4.5,0-7.11-1.8-7.11-7.37v-2c0-4.9,2.06-7.37,7.19-7.37
				c1.89,0,4.15,0.2,5.74,0.41v16.85C221.41,248.45,220.37,250.74,215.26,250.74z M218.8,230.32c-0.32-0.06-1.68-0.2-3.13-0.2
				c-3.6,0-4.58,1.71-4.58,5.16v2c0,4,1.28,5.16,4.53,5.16c1.19,0,2.78-0.17,3.19-0.26V230.32z"/>
			<path class="st0" d="M228.05,231.6v12.68h-2.58v-15.95h2.55v1.28c1.51-1.19,3.45-1.68,5.69-1.68v2.32
				C231.62,230.23,229.27,230.81,228.05,231.6z"/>
			<path class="st0" d="M236.53,225.36v-3.54h2.64v3.54H236.53z M236.53,244.27v-15.95h2.61v15.95H236.53z"/>
			<path class="st0" d="M253.17,244.27v-0.81c-1.07,0.64-2.61,1.22-4.47,1.22c-3.74,0-5.95-2.12-5.95-6.82v-2.76
				c0-5.71,2.87-7.19,6.58-7.19c1.28,0,2.47,0.15,3.74,0.41v-6.5h2.61v22.45H253.17z M253.08,230.49c-1.31-0.23-2.7-0.38-3.57-0.38
				c-2.58,0-4.15,0.72-4.15,4.99v2.76c0,3.16,1.16,4.58,3.83,4.58c1.42,0,2.7-0.41,3.89-0.99V230.49z"/>
			<path class="st0" d="M259.59,236.88v-2.18h7.17v2.18H259.59z"/>
			<path class="st0" d="M275.2,244.68c-2.23,0-4.7-0.46-5.22-0.64v-2c0.96,0.09,3.22,0.41,5.13,0.41c2.73,0,3.42-0.75,3.42-2.15
				c0-1.42-0.49-1.86-3.22-3.02l-1.16-0.49c-3.07-1.31-4.38-2.61-4.38-4.9c0-2.67,1.77-3.97,5.77-3.97c2.15,0,4.24,0.38,4.82,0.58
				v1.94c-1.68-0.17-3.6-0.29-4.7-0.29c-2.32,0-3.28,0.29-3.28,1.74c0,1.25,0.52,1.77,2.79,2.76l1.16,0.49
				c3.71,1.65,4.82,2.64,4.82,5.1C281.15,242.53,279.93,244.68,275.2,244.68z"/>
			<path class="st0" d="M290.27,244.68c-4.35,0-6.38-2.64-6.38-7.19v-2.41c0-4.58,2.03-7.17,6.38-7.17c2.32,0,4,0.38,4.55,0.55v1.97
				c-1.94-0.2-3.34-0.29-4.18-0.29c-2.55,0-4.15,0.96-4.15,4.93v2.41c0,3.97,1.6,4.96,4.15,4.96c0.84,0,2.23-0.09,4.18-0.29v1.97
				C294.27,244.3,292.59,244.68,290.27,244.68z"/>
			<path class="st0" d="M307.37,244.27v-1.07c-0.96,0.67-2.7,1.48-5.08,1.48c-2.99,0-4.76-1.33-4.76-4.53v-0.58
				c0-4.21,2.87-4.93,7.34-4.93h2.38v-1.16c0-2.75-0.55-3.36-3.74-3.36c-1.77,0-3.19,0.14-4.93,0.35v-1.86
				c0.46-0.17,2.67-0.7,5.13-0.7c5.31,0,6.15,1.94,6.15,5.57v10.79H307.37z M307.25,236.62h-2.38c-3.37,0-4.73,0.41-4.73,2.96v0.78
				c0,1.8,1.1,2.29,2.67,2.29c1.89,0,3.77-0.84,4.44-1.28V236.62z"/>
			<path class="st0" d="M313.89,244.27v-22.45h2.58v22.45H313.89z"/>
			<path class="st0" d="M322.69,237.25v0.32c0,2.75,0.41,4.84,4.82,4.84c1.77,0,4.06-0.2,5.57-0.46v2.09
				c-1.1,0.29-3.05,0.64-5.69,0.64c-5.66,0-7.31-2.52-7.31-7.69v-1.22c0-5.02,2.23-7.86,6.76-7.86c4.7,0,6.85,2.81,6.85,8.18v1.16
				H322.69z M330.99,234.82c0-1.94-0.41-4.64-4.12-4.64c-3.65,0-4.15,2.7-4.15,4.64v0.29h8.27V234.82z"/>
			<path class="st0" d="M57.77,259.36v-3.54h2.64v3.54H57.77z M57.77,278.27v-15.95h2.61v15.95H57.77z"/>
			<path class="st0" d="M74.76,278.27v-10.18c0-2.9-0.46-3.94-2.67-3.94c-1.25,0-2.9,0.49-5.02,1.42v12.71h-2.58v-15.95h2.58v1.25
				c1.86-0.96,3.54-1.65,5.31-1.65c4.24,0,4.99,2.29,4.99,6.18v10.18H74.76z"/>
			<path class="st0" d="M86.01,278.68c-2.23,0-4.7-0.46-5.22-0.64v-2c0.96,0.09,3.22,0.41,5.13,0.41c2.73,0,3.42-0.75,3.42-2.15
				c0-1.42-0.49-1.86-3.22-3.02l-1.16-0.49c-3.07-1.31-4.38-2.61-4.38-4.9c0-2.67,1.77-3.97,5.77-3.97c2.15,0,4.24,0.38,4.82,0.58
				v1.94c-1.68-0.17-3.6-0.29-4.7-0.29c-2.32,0-3.28,0.29-3.28,1.74c0,1.25,0.52,1.77,2.79,2.76l1.16,0.49
				c3.71,1.65,4.82,2.64,4.82,5.1C91.95,276.53,90.73,278.68,86.01,278.68z"/>
			<path class="st0" d="M101.07,278.68c-2.9,0-3.94-1.04-3.94-4.06v-10.12l-3.22-0.23v-1.94h3.22v-4.15h2.61v4.15H104v2.18h-4.26
				v10.01c0,1.8,0.14,2.09,1.62,2.09c0.9,0,2.15-0.09,2.64-0.14v1.8C103.57,278.39,102.29,278.68,101.07,278.68z"/>
			<path class="st0" d="M116.29,278.27v-1.07c-0.96,0.67-2.7,1.48-5.08,1.48c-2.99,0-4.76-1.33-4.76-4.53v-0.58
				c0-4.21,2.87-4.93,7.34-4.93h2.38v-1.16c0-2.75-0.55-3.36-3.74-3.36c-1.77,0-3.19,0.14-4.93,0.35v-1.86
				c0.46-0.17,2.67-0.7,5.13-0.7c5.31,0,6.15,1.94,6.15,5.57v10.79H116.29z M116.18,270.62h-2.38c-3.37,0-4.73,0.41-4.73,2.96v0.78
				c0,1.8,1.1,2.29,2.67,2.29c1.89,0,3.77-0.84,4.44-1.28V270.62z"/>
			<path class="st0" d="M122.82,278.27v-22.45h2.58v22.45H122.82z"/>
			<path class="st0" d="M129.59,278.27v-22.45h2.58v22.45H129.59z"/>
			<path class="st0" d="M145.31,278.27v-1.07c-0.96,0.67-2.7,1.48-5.08,1.48c-2.99,0-4.76-1.33-4.76-4.53v-0.58
				c0-4.21,2.87-4.93,7.34-4.93h2.38v-1.16c0-2.75-0.55-3.36-3.74-3.36c-1.77,0-3.19,0.14-4.93,0.35v-1.86
				c0.46-0.17,2.67-0.7,5.13-0.7c5.31,0,6.15,1.94,6.15,5.57v10.79H145.31z M145.2,270.62h-2.38c-3.37,0-4.73,0.41-4.73,2.96v0.78
				c0,1.8,1.1,2.29,2.67,2.29c1.89,0,3.77-0.84,4.44-1.28V270.62z"/>
			<path class="st0" d="M157.6,278.68c-2.9,0-3.94-1.04-3.94-4.06v-10.12l-3.22-0.23v-1.94h3.22v-4.15h2.61v4.15h4.26v2.18h-4.26
				v10.01c0,1.8,0.14,2.09,1.62,2.09c0.9,0,2.15-0.09,2.64-0.14v1.8C160.1,278.39,158.82,278.68,157.6,278.68z"/>
			<path class="st0" d="M163.57,259.36v-3.54h2.64v3.54H163.57z M163.57,278.27v-15.95h2.61v15.95H163.57z"/>
			<path class="st0" d="M176.54,278.68c-4.47,0-6.79-2.58-6.79-7.22v-2.32c0-4.64,2.32-7.22,6.79-7.22c4.5,0,6.82,2.58,6.82,7.22
				v2.32C183.36,276.1,181.04,278.68,176.54,278.68z M180.75,269.14c0-3.45-1.28-4.93-4.21-4.93c-2.87,0-4.18,1.48-4.18,4.93v2.32
				c0,3.45,1.28,4.93,4.18,4.93c2.93,0,4.21-1.48,4.21-4.93V269.14z"/>
			<path class="st0" d="M197.16,278.27v-10.18c0-2.9-0.46-3.94-2.67-3.94c-1.25,0-2.9,0.49-5.02,1.42v12.71h-2.58v-15.95h2.58v1.25
				c1.86-0.96,3.54-1.65,5.31-1.65c4.24,0,4.99,2.29,4.99,6.18v10.18H197.16z"/>
			<path class="st0" d="M208.41,278.68c-2.23,0-4.7-0.46-5.22-0.64v-2c0.96,0.09,3.22,0.41,5.13,0.41c2.73,0,3.42-0.75,3.42-2.15
				c0-1.42-0.49-1.86-3.22-3.02l-1.16-0.49c-3.07-1.31-4.38-2.61-4.38-4.9c0-2.67,1.77-3.97,5.77-3.97c2.15,0,4.24,0.38,4.82,0.58
				v1.94c-1.68-0.17-3.6-0.29-4.7-0.29c-2.32,0-3.28,0.29-3.28,1.74c0,1.25,0.52,1.77,2.79,2.76l1.16,0.49
				c3.71,1.65,4.82,2.64,4.82,5.1C214.35,276.53,213.13,278.68,208.41,278.68z"/>
			<path class="st0" d="M217.78,278.27v-4h2.61v4H217.78z"/>
		</g>
	</g>
	<g>
		<path class="st0" d="M586.17,643.11c-84.07-23.28-150.75-89.96-174.03-174.03c-3.67-13.25-15.74-22.51-29.36-22.51H30.4
			c-16.76,0-30.4,13.64-30.4,30.4v153.69V787.6C0,804.36,13.64,818,30.4,818h547.89c16.76,0,30.4-13.64,30.4-30.4V672.46
			C608.68,658.85,599.43,646.78,586.17,643.11z M604.08,787.6c0,14.22-11.57,25.79-25.79,25.79H30.4
			c-14.22,0-25.79-11.57-25.79-25.79V630.66V476.97c0-14.22,11.57-25.79,25.79-25.79h352.39c11.55,0,21.8,7.87,24.92,19.13
			c23.71,85.62,91.62,153.53,177.24,177.24c11.26,3.12,19.13,13.36,19.13,24.92V787.6z"/>
		<path class="st1" d="M385.8,446.79c23.24-2.23,44.63,12.36,51.44,34.69c9.96,32.65,27.86,62.57,52.24,86.72
			c23.81,23.6,53.01,41.02,84.65,50.87c22.27,6.93,36.77,28.33,34.28,51.52l-0.01,0.05c-56.18-6.04-109.35-31.38-149.71-71.37
			c-40.94-40.56-66.8-94.52-72.84-151.94L385.8,446.79L385.8,446.79z"/>
		<g>
			<path class="st0" d="M63.6,684.68c-2.61,0-5.37-0.41-6.15-0.61v-2.09c1.71,0.2,3.71,0.38,6.15,0.38c2.93,0,4.41-1.02,4.41-3.54
				c0-1.71-0.64-2.7-2.93-3.74l-3.68-1.65c-2.87-1.28-4.44-2.84-4.44-5.83c0-3.54,2.32-5.22,7.05-5.22c2.58,0,5.16,0.38,5.95,0.58
				v2.12c-1.31-0.15-3.77-0.38-5.86-0.38c-2.84,0-4.44,0.67-4.44,2.9c0,1.65,0.61,2.58,2.9,3.6l3.71,1.62
				c3.02,1.33,4.47,2.99,4.47,6C70.73,682.56,68.36,684.68,63.6,684.68z"/>
			<path class="st0" d="M80.53,684.68c-4.47,0-6.79-2.58-6.79-7.22v-2.32c0-4.64,2.32-7.22,6.79-7.22c4.5,0,6.82,2.58,6.82,7.22
				v2.32C87.34,682.1,85.02,684.68,80.53,684.68z M84.73,675.14c0-3.45-1.28-4.93-4.21-4.93c-2.87,0-4.18,1.48-4.18,4.93v2.32
				c0,3.45,1.28,4.93,4.18,4.93c2.93,0,4.21-1.48,4.21-4.93V675.14z"/>
			<path class="st0" d="M97.03,684.68c-1.07,0-2.58-0.2-3.57-0.46v6.15h-2.58v-22.04h2.5v1.07c1.42-0.99,3.1-1.48,4.64-1.48
				c3.66,0,5.77,2.06,5.77,7.43v1.57C103.79,683.06,100.86,684.68,97.03,684.68z M101.21,675.34c0-3.92-1.22-5.13-3.6-5.13
				c-1.25,0-2.26,0.26-4.15,1.19v10.65c1.3,0.26,2.49,0.44,3.57,0.44c2.55,0,4.18-0.9,4.18-5.57V675.34z"/>
			<path class="st0" d="M117.63,684.27v-10.09c0-3.13-0.81-4-3.02-4c-1.83,0-3.66,0.64-4.67,1.13v12.97h-2.58v-22.45h2.58v7.4
				c1.01-0.52,2.87-1.3,5.19-1.3c3.48,0,5.1,2,5.1,6.18v10.18H117.63z"/>
			<path class="st0" d="M124.34,665.36v-3.54h2.64v3.54H124.34z M124.34,684.27v-15.95h2.61v15.95H124.34z"/>
			<path class="st0" d="M135.68,684.68c-2.23,0-4.7-0.46-5.22-0.64v-2c0.96,0.09,3.22,0.41,5.13,0.41c2.73,0,3.42-0.75,3.42-2.15
				c0-1.42-0.49-1.86-3.22-3.02l-1.16-0.49c-3.07-1.31-4.38-2.61-4.38-4.9c0-2.67,1.77-3.97,5.77-3.97c2.15,0,4.24,0.38,4.82,0.58
				v1.94c-1.68-0.17-3.6-0.29-4.7-0.29c-2.32,0-3.28,0.29-3.28,1.74c0,1.25,0.52,1.77,2.79,2.76l1.16,0.49
				c3.71,1.65,4.82,2.64,4.82,5.11C141.63,682.53,140.41,684.68,135.68,684.68z"/>
			<path class="st0" d="M150.75,684.68c-2.9,0-3.94-1.04-3.94-4.06v-10.12l-3.22-0.23v-1.94h3.22v-4.15h2.61v4.15h4.26v2.17h-4.26
				v10.01c0,1.8,0.14,2.09,1.62,2.09c0.9,0,2.15-0.09,2.64-0.14v1.8C153.24,684.39,151.97,684.68,150.75,684.68z"/>
			<path class="st0" d="M156.71,665.36v-3.54h2.64v3.54H156.71z M156.71,684.27v-15.95h2.61v15.95H156.71z"/>
			<path class="st0" d="M169.32,684.68c-4.35,0-6.38-2.64-6.38-7.19v-2.41c0-4.58,2.03-7.16,6.38-7.16c2.32,0,4,0.38,4.55,0.55v1.97
				c-1.94-0.2-3.34-0.29-4.18-0.29c-2.55,0-4.15,0.96-4.15,4.93v2.41c0,3.97,1.6,4.96,4.15,4.96c0.84,0,2.23-0.09,4.18-0.29v1.97
				C173.32,684.3,171.64,684.68,169.32,684.68z"/>
			<path class="st0" d="M186.41,684.27v-1.07c-0.96,0.67-2.7,1.48-5.08,1.48c-2.99,0-4.76-1.33-4.76-4.53v-0.58
				c0-4.21,2.87-4.93,7.34-4.93h2.38v-1.16c0-2.76-0.55-3.37-3.74-3.37c-1.77,0-3.19,0.15-4.93,0.35v-1.86
				c0.46-0.17,2.67-0.7,5.13-0.7c5.31,0,6.15,1.94,6.15,5.57v10.79H186.41z M186.3,676.62h-2.38c-3.37,0-4.73,0.41-4.73,2.96v0.78
				c0,1.8,1.1,2.29,2.67,2.29c1.89,0,3.77-0.84,4.44-1.28V676.62z"/>
			<path class="st0" d="M198.7,684.68c-2.9,0-3.94-1.04-3.94-4.06v-10.12l-3.22-0.23v-1.94h3.22v-4.15h2.61v4.15h4.26v2.17h-4.26
				v10.01c0,1.8,0.14,2.09,1.62,2.09c0.9,0,2.15-0.09,2.64-0.14v1.8C201.2,684.39,199.92,684.68,198.7,684.68z"/>
			<path class="st0" d="M206.39,677.25v0.32c0,2.76,0.41,4.84,4.82,4.84c1.77,0,4.06-0.2,5.57-0.46v2.09
				c-1.1,0.29-3.05,0.64-5.69,0.64c-5.66,0-7.31-2.52-7.31-7.69v-1.22c0-5.02,2.23-7.86,6.76-7.86c4.7,0,6.84,2.81,6.84,8.18v1.16
				H206.39z M214.69,674.82c0-1.94-0.41-4.64-4.12-4.64c-3.65,0-4.15,2.7-4.15,4.64v0.29h8.27V674.82z"/>
			<path class="st0" d="M230.81,684.27v-0.81c-1.07,0.64-2.61,1.22-4.47,1.22c-3.74,0-5.95-2.12-5.95-6.82v-2.76
				c0-5.71,2.87-7.19,6.58-7.19c1.28,0,2.47,0.14,3.74,0.41v-6.5h2.61v22.45H230.81z M230.72,670.49c-1.31-0.23-2.7-0.38-3.57-0.38
				c-2.58,0-4.15,0.73-4.15,4.99v2.76c0,3.16,1.16,4.58,3.83,4.58c1.42,0,2.7-0.41,3.89-0.99V670.49z"/>
			<path class="st0" d="M261.15,684.27v-10.59c0-2.23,0-3.54-2.38-3.54c-1.1,0-2.64,0.52-4.03,1.33c0.12,0.75,0.12,1.51,0.12,2.21
				v10.59h-2.61v-10.59c0-2.23,0-3.54-2.18-3.54c-1.39,0-2.99,0.72-4.15,1.39v12.73h-2.58v-15.95h2.58v1.25
				c1.3-0.96,2.96-1.65,4.76-1.65c1.86,0,2.9,0.67,3.51,1.71c1.86-1.22,3.48-1.71,4.93-1.71c4.64,0,4.64,3.31,4.64,5.77v10.59
				H261.15z"/>
			<path class="st0" d="M278,684.27v-1.25c-2.12,1.07-3.92,1.65-5.54,1.65c-3.94,0-4.73-2.73-4.73-6.18v-10.18h2.58v10.18
				c0,2.9,0.46,3.95,2.7,3.95c1.25,0,2.87-0.49,4.99-1.42v-12.7h2.61v15.95H278z"/>
			<path class="st0" d="M284.75,684.27v-22.45h2.58v22.45H284.75z"/>
			<path class="st0" d="M297.45,684.68c-2.9,0-3.94-1.04-3.94-4.06v-10.12l-3.22-0.23v-1.94h3.22v-4.15h2.61v4.15h4.26v2.17h-4.26
				v10.01c0,1.8,0.14,2.09,1.62,2.09c0.9,0,2.15-0.09,2.64-0.14v1.8C299.95,684.39,298.67,684.68,297.45,684.68z"/>
			<path class="st0" d="M303.42,665.36v-3.54h2.64v3.54H303.42z M303.42,684.27v-15.95h2.61v15.95H303.42z"/>
			<path class="st0" d="M310.23,684.27v-22.45h2.58v22.45H310.23z"/>
			<path class="st0" d="M319.03,677.25v0.32c0,2.76,0.41,4.84,4.82,4.84c1.77,0,4.06-0.2,5.57-0.46v2.09
				c-1.1,0.29-3.05,0.64-5.69,0.64c-5.66,0-7.31-2.52-7.31-7.69v-1.22c0-5.02,2.23-7.86,6.76-7.86c4.7,0,6.85,2.81,6.85,8.18v1.16
				H319.03z M327.33,674.82c0-1.94-0.41-4.64-4.12-4.64c-3.65,0-4.15,2.7-4.15,4.64v0.29h8.27V674.82z"/>
			<path class="st0" d="M340.67,684.27h-3.6l-5.31-15.95h2.81l3.05,9.8c0.49,1.57,0.87,2.93,1.31,4.38
				c0.38-1.45,0.72-2.78,1.22-4.38l3.02-9.8h2.81L340.67,684.27z"/>
			<path class="st0" d="M350.32,677.25v0.32c0,2.76,0.41,4.84,4.82,4.84c1.77,0,4.06-0.2,5.57-0.46v2.09
				c-1.1,0.29-3.05,0.64-5.69,0.64c-5.66,0-7.31-2.52-7.31-7.69v-1.22c0-5.02,2.23-7.86,6.76-7.86c4.7,0,6.85,2.81,6.85,8.18v1.16
				H350.32z M358.62,674.82c0-1.94-0.41-4.64-4.12-4.64c-3.65,0-4.15,2.7-4.15,4.64v0.29h8.27V674.82z"/>
			<path class="st0" d="M364.85,684.27v-22.45h2.58v22.45H364.85z"/>
			<path class="st0" d="M63.37,718.27h-5.54v-21.55h5.69c5.25,0,8.67,0.81,8.67,5.8c0,1.83-0.87,3.77-2.93,4.64
				c2.12,0.81,3.05,2.67,3.05,5.05C72.3,717.4,68.44,718.27,63.37,718.27z M63.51,699.1h-3.02v6.85h4.32c3.74,0,4.67-1.39,4.67-3.42
				C69.49,699.27,67.31,699.1,63.51,699.1z M64.82,708.24h-4.32v7.69h2.87c3.97,0,6.24-0.49,6.24-3.71
				C69.6,709.8,68.59,708.24,64.82,708.24z"/>
			<path class="st0" d="M85.07,718.27v-1.07c-0.96,0.67-2.7,1.48-5.08,1.48c-2.99,0-4.76-1.33-4.76-4.53v-0.58
				c0-4.21,2.87-4.93,7.34-4.93h2.38v-1.16c0-2.75-0.55-3.36-3.74-3.36c-1.77,0-3.19,0.14-4.93,0.35v-1.86
				c0.46-0.17,2.67-0.7,5.13-0.7c5.31,0,6.15,1.94,6.15,5.57v10.79H85.07z M84.95,710.62h-2.38c-3.37,0-4.73,0.41-4.73,2.96v0.78
				c0,1.8,1.1,2.29,2.67,2.29c1.89,0,3.77-0.84,4.44-1.28V710.62z"/>
			<path class="st0" d="M97.36,718.68c-2.9,0-3.94-1.04-3.94-4.06v-10.12l-3.22-0.23v-1.94h3.22v-4.15h2.61v4.15h4.26v2.18h-4.26
				v10.01c0,1.8,0.14,2.09,1.62,2.09c0.9,0,2.15-0.09,2.64-0.14v1.8C99.85,718.39,98.57,718.68,97.36,718.68z"/>
			<path class="st0" d="M109.67,718.68c-2.9,0-3.94-1.04-3.94-4.06v-10.12l-3.22-0.23v-1.94h3.22v-4.15h2.61v4.15h4.26v2.18h-4.26
				v10.01c0,1.8,0.14,2.09,1.62,2.09c0.9,0,2.15-0.09,2.64-0.14v1.8C112.16,718.39,110.89,718.68,109.67,718.68z"/>
			<path class="st0" d="M117.36,711.25v0.32c0,2.75,0.41,4.84,4.82,4.84c1.77,0,4.06-0.2,5.57-0.46v2.09
				c-1.1,0.29-3.05,0.64-5.69,0.64c-5.66,0-7.31-2.52-7.31-7.69v-1.22c0-5.02,2.23-7.86,6.76-7.86c4.7,0,6.85,2.81,6.85,8.18v1.16
				H117.36z M125.66,708.82c0-1.94-0.41-4.64-4.12-4.64c-3.65,0-4.15,2.7-4.15,4.64v0.29h8.27V708.82z"/>
			<path class="st0" d="M134.35,705.6v12.68h-2.58v-15.95h2.55v1.28c1.51-1.19,3.45-1.68,5.69-1.68v2.32
				C137.92,704.23,135.57,704.81,134.35,705.6z"/>
			<path class="st0" d="M150.38,719.69c-1.07,3.08-2.09,5.05-5.37,5.05c-1.36,0-2.55-0.17-3.1-0.29v-2
				c1.25,0.09,1.97,0.12,3.02,0.12c1.57,0,2-0.81,2.87-3.13l0.43-1.16l-6.18-15.95h2.87l3.25,8.96c0.49,1.42,0.81,2.52,1.33,4.23
				c0.41-1.71,0.73-2.78,1.22-4.26l2.93-8.93h2.78L150.38,719.69z"/>
			<path class="st0" d="M181.12,718.27v-14.01c0-1.57,0.06-2.52,0.14-4h-0.06c-0.49,1.19-1.02,2.21-1.54,3.31l-3.63,7.74h-3.28
				l-3.54-7.74c-0.49-1.1-1.02-2.21-1.54-3.31h-0.06c0.06,1.48,0.12,2.41,0.12,4v14.01h-2.64v-21.55h3.51l4.47,9.72
				c0.44,0.93,0.87,1.97,1.28,2.9h0.06c0.41-0.96,0.9-2,1.33-2.96l4.53-9.66h3.48v21.55H181.12z"/>
			<path class="st0" d="M196.98,718.27v-1.07c-0.96,0.67-2.7,1.48-5.08,1.48c-2.99,0-4.76-1.33-4.76-4.53v-0.58
				c0-4.21,2.87-4.93,7.34-4.93h2.38v-1.16c0-2.75-0.55-3.36-3.74-3.36c-1.77,0-3.19,0.14-4.93,0.35v-1.86
				c0.46-0.17,2.67-0.7,5.13-0.7c5.31,0,6.15,1.94,6.15,5.57v10.79H196.98z M196.86,710.62h-2.38c-3.37,0-4.73,0.41-4.73,2.96v0.78
				c0,1.8,1.1,2.29,2.67,2.29c1.89,0,3.77-0.84,4.44-1.28V710.62z"/>
			<path class="st0" d="M213.69,718.27v-10.18c0-2.9-0.46-3.94-2.67-3.94c-1.25,0-2.9,0.49-5.02,1.42v12.71h-2.58v-15.95H206v1.25
				c1.86-0.96,3.54-1.65,5.31-1.65c4.24,0,4.99,2.29,4.99,6.18v10.18H213.69z"/>
			<path class="st0" d="M229.36,718.27v-1.07c-0.96,0.67-2.7,1.48-5.08,1.48c-2.99,0-4.76-1.33-4.76-4.53v-0.58
				c0-4.21,2.87-4.93,7.34-4.93h2.38v-1.16c0-2.75-0.55-3.36-3.74-3.36c-1.77,0-3.19,0.14-4.93,0.35v-1.86
				c0.46-0.17,2.67-0.7,5.13-0.7c5.31,0,6.15,1.94,6.15,5.57v10.79H229.36z M229.24,710.62h-2.38c-3.37,0-4.73,0.41-4.73,2.96v0.78
				c0,1.8,1.1,2.29,2.67,2.29c1.89,0,3.77-0.84,4.44-1.28V710.62z"/>
			<path class="st0" d="M242.08,724.74c-2.44,0-5.37-0.46-5.86-0.58v-1.89c1.74,0.12,3.83,0.23,5.86,0.23
				c3.16,0,3.54-1.13,3.54-3.34v-0.81c-0.52,0.09-2.03,0.29-3.22,0.29c-4.5,0-7.11-1.8-7.11-7.37v-2c0-4.9,2.06-7.37,7.19-7.37
				c1.89,0,4.15,0.2,5.74,0.41v16.85C248.23,722.45,247.18,724.74,242.08,724.74z M245.62,704.32c-0.32-0.06-1.68-0.2-3.13-0.2
				c-3.6,0-4.58,1.71-4.58,5.16v2c0,4,1.28,5.16,4.53,5.16c1.19,0,2.78-0.17,3.19-0.26V704.32z"/>
			<path class="st0" d="M254.37,711.25v0.32c0,2.75,0.41,4.84,4.82,4.84c1.77,0,4.06-0.2,5.57-0.46v2.09
				c-1.1,0.29-3.05,0.64-5.69,0.64c-5.66,0-7.31-2.52-7.31-7.69v-1.22c0-5.02,2.23-7.86,6.76-7.86c4.7,0,6.85,2.81,6.85,8.18v1.16
				H254.37z M262.67,708.82c0-1.94-0.41-4.64-4.12-4.64c-3.65,0-4.15,2.7-4.15,4.64v0.29h8.27V708.82z"/>
			<path class="st0" d="M286.59,718.27v-10.59c0-2.23,0-3.54-2.38-3.54c-1.1,0-2.64,0.52-4.03,1.33c0.12,0.75,0.12,1.51,0.12,2.2
				v10.59h-2.61v-10.59c0-2.23,0-3.54-2.18-3.54c-1.39,0-2.99,0.72-4.15,1.39v12.73h-2.58v-15.95h2.58v1.25
				c1.3-0.96,2.96-1.65,4.76-1.65c1.86,0,2.9,0.67,3.51,1.71c1.86-1.22,3.48-1.71,4.93-1.71c4.64,0,4.64,3.31,4.64,5.77v10.59
				H286.59z"/>
			<path class="st0" d="M295.31,711.25v0.32c0,2.75,0.41,4.84,4.82,4.84c1.77,0,4.06-0.2,5.57-0.46v2.09
				c-1.1,0.29-3.05,0.64-5.69,0.64c-5.66,0-7.31-2.52-7.31-7.69v-1.22c0-5.02,2.23-7.86,6.76-7.86c4.7,0,6.84,2.81,6.84,8.18v1.16
				H295.31z M303.61,708.82c0-1.94-0.41-4.64-4.12-4.64c-3.65,0-4.15,2.7-4.15,4.64v0.29h8.27V708.82z"/>
			<path class="st0" d="M319.99,718.27v-10.18c0-2.9-0.46-3.94-2.67-3.94c-1.25,0-2.9,0.49-5.02,1.42v12.71h-2.58v-15.95h2.58v1.25
				c1.86-0.96,3.54-1.65,5.31-1.65c4.24,0,4.99,2.29,4.99,6.18v10.18H319.99z"/>
			<path class="st0" d="M332.45,718.68c-2.9,0-3.94-1.04-3.94-4.06v-10.12l-3.22-0.23v-1.94h3.22v-4.15h2.61v4.15h4.26v2.18h-4.26
				v10.01c0,1.8,0.14,2.09,1.62,2.09c0.9,0,2.15-0.09,2.64-0.14v1.8C334.95,718.39,333.67,718.68,332.45,718.68z"/>
			<path class="st0" d="M350.03,718.68c-2.61,0-5.37-0.41-6.15-0.61v-2.09c1.71,0.2,3.71,0.38,6.15,0.38c2.93,0,4.41-1.02,4.41-3.54
				c0-1.71-0.64-2.7-2.93-3.74l-3.68-1.65c-2.87-1.28-4.44-2.84-4.44-5.83c0-3.54,2.32-5.22,7.05-5.22c2.58,0,5.16,0.38,5.95,0.58
				v2.12c-1.31-0.15-3.77-0.38-5.86-0.38c-2.84,0-4.44,0.67-4.44,2.9c0,1.65,0.61,2.58,2.9,3.6l3.71,1.62
				c3.02,1.33,4.47,2.99,4.47,6C357.16,716.56,354.78,718.68,350.03,718.68z"/>
			<path class="st0" d="M366.4,719.69c-1.07,3.08-2.09,5.05-5.37,5.05c-1.36,0-2.55-0.17-3.1-0.29v-2c1.25,0.09,1.97,0.12,3.02,0.12
				c1.57,0,2-0.81,2.87-3.13l0.43-1.16l-6.18-15.95h2.87l3.25,8.96c0.49,1.42,0.81,2.52,1.33,4.23c0.41-1.71,0.73-2.78,1.22-4.26
				l2.93-8.93h2.78L366.4,719.69z"/>
			<path class="st0" d="M379.98,718.68c-2.23,0-4.7-0.46-5.22-0.64v-2c0.96,0.09,3.22,0.41,5.13,0.41c2.73,0,3.42-0.75,3.42-2.15
				c0-1.42-0.49-1.86-3.22-3.02l-1.16-0.49c-3.07-1.31-4.38-2.61-4.38-4.9c0-2.67,1.77-3.97,5.77-3.97c2.15,0,4.24,0.38,4.82,0.58
				v1.94c-1.68-0.17-3.6-0.29-4.7-0.29c-2.32,0-3.28,0.29-3.28,1.74c0,1.25,0.52,1.77,2.79,2.76l1.16,0.49
				c3.71,1.65,4.82,2.64,4.82,5.1C385.93,716.53,384.71,718.68,379.98,718.68z"/>
			<path class="st0" d="M395.05,718.68c-2.9,0-3.94-1.04-3.94-4.06v-10.12l-3.22-0.23v-1.94h3.22v-4.15h2.61v4.15h4.26v2.18h-4.26
				v10.01c0,1.8,0.14,2.09,1.62,2.09c0.9,0,2.15-0.09,2.64-0.14v1.8C397.54,718.39,396.27,718.68,395.05,718.68z"/>
			<path class="st0" d="M402.74,711.25v0.32c0,2.75,0.41,4.84,4.82,4.84c1.77,0,4.06-0.2,5.57-0.46v2.09
				c-1.1,0.29-3.05,0.64-5.69,0.64c-5.66,0-7.31-2.52-7.31-7.69v-1.22c0-5.02,2.23-7.86,6.76-7.86c4.7,0,6.85,2.81,6.85,8.18v1.16
				H402.74z M411.04,708.82c0-1.94-0.41-4.64-4.12-4.64c-3.65,0-4.15,2.7-4.15,4.64v0.29h8.27V708.82z"/>
			<path class="st0" d="M434.96,718.27v-10.59c0-2.23,0-3.54-2.38-3.54c-1.1,0-2.64,0.52-4.03,1.33c0.12,0.75,0.12,1.51,0.12,2.2
				v10.59h-2.61v-10.59c0-2.23,0-3.54-2.18-3.54c-1.39,0-2.99,0.72-4.15,1.39v12.73h-2.58v-15.95h2.58v1.25
				c1.3-0.96,2.96-1.65,4.76-1.65c1.86,0,2.9,0.67,3.51,1.71c1.86-1.22,3.48-1.71,4.93-1.71c4.64,0,4.64,3.31,4.64,5.77v10.59
				H434.96z"/>
			<path class="st0" d="M441.67,718.27v-4h2.61v4H441.67z"/>
		</g>
	</g>
	<g>
		<path class="st0" d="M1262.11,0H714.22c-16.76,0-30.4,13.64-30.4,30.4v115.14c0,13.62,9.26,25.69,22.51,29.36
			c84.07,23.28,150.75,89.96,174.03,174.03c3.67,13.25,15.74,22.51,29.36,22.51h352.39c16.76,0,30.4-13.64,30.4-30.4V186.49V30.4
			C1292.51,13.64,1278.87,0,1262.11,0z M1287.9,341.03c0,14.22-11.57,25.79-25.79,25.79H909.72c-11.55,0-21.8-7.87-24.91-19.13
			c-23.71-85.62-91.62-153.53-177.24-177.24c-11.26-3.12-19.13-13.36-19.13-24.92V30.4c0-14.22,11.57-25.79,25.79-25.79h547.89
			c14.22,0,25.79,11.57,25.79,25.79v156.09V341.03z"/>
		<path class="st1" d="M906.71,371.09c-23.24,2.23-44.63-12.36-51.44-34.69c-9.96-32.65-27.86-62.57-52.24-86.72
			c-23.81-23.6-53.01-41.02-84.65-50.87c-22.27-6.93-36.77-28.33-34.28-51.52l0.01-0.05c56.18,6.04,109.35,31.38,149.71,71.37
			c40.94,40.56,66.8,94.52,72.84,151.94L906.71,371.09L906.71,371.09z"/>
		<g>
			<path class="st0" d="M905.68,111.68c-2.61,0-5.37-0.41-6.15-0.61v-2.09c1.71,0.2,3.71,0.38,6.15,0.38c2.93,0,4.41-1.02,4.41-3.54
				c0-1.71-0.64-2.7-2.93-3.74l-3.68-1.65c-2.87-1.28-4.44-2.84-4.44-5.83c0-3.54,2.32-5.22,7.05-5.22c2.58,0,5.16,0.38,5.95,0.58
				v2.12c-1.31-0.15-3.77-0.38-5.86-0.38c-2.84,0-4.44,0.67-4.44,2.9c0,1.65,0.61,2.58,2.9,3.6l3.71,1.62
				c3.02,1.33,4.47,2.99,4.47,6C912.81,109.56,910.43,111.68,905.68,111.68z"/>
			<path class="st0" d="M918.43,104.25v0.32c0,2.76,0.41,4.84,4.82,4.84c1.77,0,4.06-0.2,5.57-0.46v2.09
				c-1.1,0.29-3.05,0.64-5.69,0.64c-5.66,0-7.31-2.52-7.31-7.69v-1.22c0-5.02,2.23-7.86,6.76-7.86c4.7,0,6.84,2.81,6.84,8.18v1.16
				H918.43z M926.72,101.82c0-1.94-0.41-4.64-4.12-4.64c-3.65,0-4.15,2.7-4.15,4.64v0.29h8.27V101.82z"/>
			<path class="st0" d="M942.06,111.27v-1.07c-0.96,0.67-2.7,1.48-5.08,1.48c-2.99,0-4.76-1.33-4.76-4.53v-0.58
				c0-4.21,2.87-4.93,7.34-4.93h2.38v-1.16c0-2.76-0.55-3.37-3.74-3.37c-1.77,0-3.19,0.15-4.93,0.35v-1.86
				c0.46-0.17,2.67-0.7,5.13-0.7c5.31,0,6.15,1.94,6.15,5.57v10.79H942.06z M941.94,103.62h-2.38c-3.37,0-4.73,0.41-4.73,2.96v0.78
				c0,1.8,1.1,2.29,2.67,2.29c1.89,0,3.77-0.84,4.44-1.28V103.62z"/>
			<path class="st0" d="M966.31,111.27v-10.59c0-2.23,0-3.54-2.38-3.54c-1.1,0-2.64,0.52-4.03,1.33c0.12,0.75,0.12,1.51,0.12,2.21
				v10.59h-2.61v-10.59c0-2.23,0-3.54-2.18-3.54c-1.39,0-2.99,0.72-4.15,1.39v12.73h-2.58V95.32h2.58v1.25
				c1.3-0.96,2.96-1.65,4.76-1.65c1.86,0,2.9,0.67,3.51,1.71c1.86-1.22,3.48-1.71,4.93-1.71c4.64,0,4.64,3.31,4.64,5.77v10.59
				H966.31z"/>
			<path class="st0" d="M973.05,111.27V88.82h2.58v22.45H973.05z"/>
			<path class="st0" d="M981.85,104.25v0.32c0,2.76,0.41,4.84,4.82,4.84c1.77,0,4.06-0.2,5.57-0.46v2.09
				c-1.1,0.29-3.05,0.64-5.69,0.64c-5.66,0-7.31-2.52-7.31-7.69v-1.22c0-5.02,2.23-7.86,6.76-7.86c4.7,0,6.84,2.81,6.84,8.18v1.16
				H981.85z M990.15,101.82c0-1.94-0.41-4.64-4.12-4.64c-3.65,0-4.15,2.7-4.15,4.64v0.29h8.27V101.82z"/>
			<path class="st0" d="M1001.06,111.68c-2.23,0-4.7-0.46-5.22-0.64v-2c0.96,0.09,3.22,0.41,5.13,0.41c2.73,0,3.42-0.75,3.42-2.15
				c0-1.42-0.49-1.86-3.22-3.02l-1.16-0.49c-3.07-1.31-4.38-2.61-4.38-4.9c0-2.67,1.77-3.97,5.77-3.97c2.15,0,4.24,0.38,4.82,0.58
				v1.94c-1.68-0.17-3.6-0.29-4.7-0.29c-2.32,0-3.28,0.29-3.28,1.74c0,1.25,0.52,1.77,2.79,2.76l1.16,0.49
				c3.71,1.65,4.82,2.64,4.82,5.11C1007.01,109.53,1005.79,111.68,1001.06,111.68z"/>
			<path class="st0" d="M1014.95,111.68c-2.23,0-4.7-0.46-5.22-0.64v-2c0.96,0.09,3.22,0.41,5.13,0.41c2.73,0,3.42-0.75,3.42-2.15
				c0-1.42-0.49-1.86-3.22-3.02l-1.16-0.49c-3.07-1.31-4.38-2.61-4.38-4.9c0-2.67,1.77-3.97,5.77-3.97c2.15,0,4.24,0.38,4.82,0.58
				v1.94c-1.68-0.17-3.6-0.29-4.7-0.29c-2.32,0-3.28,0.29-3.28,1.74c0,1.25,0.52,1.77,2.79,2.76l1.16,0.49
				c3.71,1.65,4.82,2.64,4.82,5.11C1020.89,109.53,1019.68,111.68,1014.95,111.68z"/>
			<path class="st0" d="M1030,92.36v-3.54h2.64v3.54H1030z M1030,111.27V95.32h2.61v15.95H1030z"/>
			<path class="st0" d="M1046.99,111.27v-10.18c0-2.9-0.46-3.94-2.67-3.94c-1.25,0-2.9,0.49-5.02,1.42v12.71h-2.58V95.32h2.58v1.25
				c1.86-0.96,3.54-1.65,5.31-1.65c4.24,0,4.99,2.29,4.99,6.18v10.18H1046.99z"/>
			<path class="st0" d="M1059.46,111.68c-2.9,0-3.94-1.04-3.94-4.06V97.49l-3.22-0.23v-1.94h3.22v-4.15h2.61v4.15h4.26v2.17h-4.26
				v10.01c0,1.8,0.14,2.09,1.62,2.09c0.9,0,2.15-0.09,2.64-0.14v1.8C1061.95,111.39,1060.68,111.68,1059.46,111.68z"/>
			<path class="st0" d="M1067.15,104.25v0.32c0,2.76,0.41,4.84,4.82,4.84c1.77,0,4.06-0.2,5.57-0.46v2.09
				c-1.1,0.29-3.05,0.64-5.69,0.64c-5.66,0-7.31-2.52-7.31-7.69v-1.22c0-5.02,2.23-7.86,6.76-7.86c4.7,0,6.85,2.81,6.85,8.18v1.16
				H1067.15z M1075.44,101.82c0-1.94-0.41-4.64-4.12-4.64c-3.65,0-4.15,2.7-4.15,4.64v0.29h8.27V101.82z"/>
			<path class="st0" d="M1087.94,117.74c-2.44,0-5.37-0.46-5.86-0.58v-1.89c1.74,0.12,3.83,0.23,5.86,0.23
				c3.16,0,3.54-1.13,3.54-3.34v-0.81c-0.52,0.09-2.03,0.29-3.22,0.29c-4.5,0-7.11-1.8-7.11-7.37v-2c0-4.9,2.06-7.37,7.19-7.37
				c1.89,0,4.15,0.2,5.74,0.41v16.85C1094.09,115.45,1093.04,117.74,1087.94,117.74z M1091.48,97.32c-0.32-0.06-1.68-0.2-3.13-0.2
				c-3.6,0-4.58,1.71-4.58,5.16v2c0,4,1.28,5.16,4.53,5.16c1.19,0,2.78-0.17,3.19-0.26V97.32z"/>
			<path class="st0" d="M1100.73,98.6v12.68h-2.58V95.32h2.55v1.28c1.51-1.19,3.45-1.68,5.69-1.68v2.32
				C1104.3,97.23,1101.95,97.81,1100.73,98.6z"/>
			<path class="st0" d="M1118.04,111.27v-1.07c-0.96,0.67-2.7,1.48-5.08,1.48c-2.99,0-4.76-1.33-4.76-4.53v-0.58
				c0-4.21,2.87-4.93,7.34-4.93h2.38v-1.16c0-2.76-0.55-3.37-3.74-3.37c-1.77,0-3.19,0.15-4.93,0.35v-1.86
				c0.46-0.17,2.67-0.7,5.13-0.7c5.31,0,6.15,1.94,6.15,5.57v10.79H1118.04z M1117.93,103.62h-2.38c-3.37,0-4.73,0.41-4.73,2.96
				v0.78c0,1.8,1.1,2.29,2.67,2.29c1.89,0,3.77-0.84,4.44-1.28V103.62z"/>
			<path class="st0" d="M1130.33,111.68c-2.9,0-3.94-1.04-3.94-4.06V97.49l-3.22-0.23v-1.94h3.22v-4.15h2.61v4.15h4.26v2.17H1129
				v10.01c0,1.8,0.14,2.09,1.62,2.09c0.9,0,2.15-0.09,2.64-0.14v1.8C1132.83,111.39,1131.55,111.68,1130.33,111.68z"/>
			<path class="st0" d="M1136.3,92.36v-3.54h2.64v3.54H1136.3z M1136.3,111.27V95.32h2.61v15.95H1136.3z"/>
			<path class="st0" d="M1149.27,111.68c-4.47,0-6.79-2.58-6.79-7.22v-2.32c0-4.64,2.32-7.22,6.79-7.22c4.5,0,6.82,2.58,6.82,7.22
				v2.32C1156.09,109.1,1153.77,111.68,1149.27,111.68z M1153.48,102.14c0-3.45-1.28-4.93-4.21-4.93c-2.87,0-4.18,1.48-4.18,4.93
				v2.32c0,3.45,1.28,4.93,4.18,4.93c2.93,0,4.21-1.48,4.21-4.93V102.14z"/>
			<path class="st0" d="M1169.89,111.27v-10.18c0-2.9-0.46-3.94-2.67-3.94c-1.25,0-2.9,0.49-5.02,1.42v12.71h-2.58V95.32h2.58v1.25
				c1.86-0.96,3.54-1.65,5.31-1.65c4.24,0,4.99,2.29,4.99,6.18v10.18H1169.89z"/>
			<path class="st0" d="M1199.85,111.27h-3.68l-2.96-9.57c-0.46-1.51-0.73-2.52-0.87-3.22h-0.12c-0.14,0.7-0.41,1.71-0.87,3.22
				l-2.96,9.57h-3.68l-3.63-15.95h2.67l2.12,9.86c0.29,1.39,0.55,2.78,0.64,4.12h0.14c0.41-1.42,0.73-2.84,1.1-4.09l2.64-8.59h3.77
				l2.64,8.59c0.38,1.25,0.7,2.67,1.1,4.09h0.14c0.09-1.33,0.35-2.73,0.64-4.12l2.12-9.86h2.64L1199.85,111.27z"/>
			<path class="st0" d="M1206.53,92.36v-3.54h2.64v3.54H1206.53z M1206.53,111.27V95.32h2.61v15.95H1206.53z"/>
			<path class="st0" d="M1219.26,111.68c-2.9,0-3.94-1.04-3.94-4.06V97.49l-3.22-0.23v-1.94h3.22v-4.15h2.61v4.15h4.26v2.17h-4.26
				v10.01c0,1.8,0.14,2.09,1.62,2.09c0.9,0,2.15-0.09,2.64-0.14v1.8C1221.75,111.39,1220.48,111.68,1219.26,111.68z"/>
			<path class="st0" d="M1235.41,111.27v-10.09c0-3.13-0.81-4-3.02-4c-1.83,0-3.66,0.64-4.67,1.13v12.97h-2.58V88.82h2.58v7.4
				c1.01-0.52,2.87-1.3,5.19-1.3c3.48,0,5.1,2,5.1,6.18v10.18H1235.41z"/>
			<path class="st0" d="M921.53,126.1v19.17h-2.67V126.1h-6.64v-2.38h15.95v2.38H921.53z"/>
			<path class="st0" d="M930.75,132.6v12.68h-2.58v-15.95h2.55v1.28c1.51-1.19,3.45-1.68,5.69-1.68v2.32
				C934.32,131.23,931.97,131.81,930.75,132.6z"/>
			<path class="st0" d="M939.23,126.36v-3.54h2.64v3.54H939.23z M939.23,145.27v-15.95h2.61v15.95H939.23z"/>
			<path class="st0" d="M956.22,145.27v-10.18c0-2.9-0.46-3.94-2.67-3.94c-1.25,0-2.9,0.49-5.02,1.42v12.71h-2.58v-15.95h2.58v1.25
				c1.86-0.96,3.54-1.65,5.31-1.65c4.24,0,4.99,2.29,4.99,6.18v10.18H956.22z"/>
			<path class="st0" d="M971.89,145.27v-1.07c-0.96,0.67-2.7,1.48-5.08,1.48c-2.99,0-4.76-1.33-4.76-4.53v-0.58
				c0-4.21,2.87-4.93,7.34-4.93h2.38v-1.16c0-2.75-0.55-3.36-3.74-3.36c-1.77,0-3.19,0.14-4.93,0.35v-1.86
				c0.46-0.17,2.67-0.7,5.13-0.7c5.31,0,6.15,1.94,6.15,5.57v10.79H971.89z M971.77,137.62h-2.38c-3.37,0-4.73,0.41-4.73,2.96v0.78
				c0,1.8,1.1,2.29,2.67,2.29c1.89,0,3.77-0.84,4.44-1.28V137.62z"/>
			<path class="st0" d="M978.82,130.22h-1.94l0.35-6.96h2.64L978.82,130.22z"/>
			<path class="st0" d="M987.03,145.68c-2.23,0-4.7-0.46-5.22-0.64v-2c0.96,0.09,3.22,0.41,5.13,0.41c2.73,0,3.42-0.75,3.42-2.15
				c0-1.42-0.49-1.86-3.22-3.02l-1.16-0.49c-3.07-1.31-4.38-2.61-4.38-4.9c0-2.67,1.77-3.97,5.77-3.97c2.15,0,4.24,0.38,4.82,0.58
				v1.94c-1.68-0.17-3.6-0.29-4.7-0.29c-2.32,0-3.28,0.29-3.28,1.74c0,1.25,0.52,1.77,2.79,2.76l1.16,0.49
				c3.71,1.65,4.82,2.64,4.82,5.1C992.97,143.53,991.76,145.68,987.03,145.68z"/>
			<path class="st0" d="M1002.08,126.36v-3.54h2.64v3.54H1002.08z M1002.08,145.27v-15.95h2.61v15.95H1002.08z"/>
			<path class="st0" d="M1019.07,145.27v-10.18c0-2.9-0.46-3.94-2.67-3.94c-1.25,0-2.9,0.49-5.02,1.42v12.71h-2.58v-15.95h2.58v1.25
				c1.86-0.96,3.54-1.65,5.31-1.65c4.24,0,4.99,2.29,4.99,6.18v10.18H1019.07z"/>
			<path class="st0" d="M1025.56,137.88v-2.18h7.17v2.18H1025.56z"/>
			<path class="st0" d="M1046.89,145.27v-10.09c0-3.13-0.81-4-3.02-4c-1.83,0-3.66,0.64-4.67,1.13v12.97h-2.58v-22.45h2.58v7.4
				c1.01-0.52,2.87-1.31,5.19-1.31c3.48,0,5.1,2,5.1,6.18v10.18H1046.89z"/>
			<path class="st0" d="M1059.76,145.68c-4.47,0-6.79-2.58-6.79-7.22v-2.32c0-4.64,2.32-7.22,6.79-7.22c4.5,0,6.82,2.58,6.82,7.22
				v2.32C1066.58,143.1,1064.26,145.68,1059.76,145.68z M1063.97,136.14c0-3.45-1.28-4.93-4.21-4.93c-2.87,0-4.18,1.48-4.18,4.93
				v2.32c0,3.45,1.28,4.93,4.18,4.93c2.93,0,4.21-1.48,4.21-4.93V136.14z"/>
			<path class="st0" d="M1080.32,145.27v-1.25c-2.12,1.07-3.92,1.65-5.54,1.65c-3.94,0-4.73-2.73-4.73-6.18v-10.18h2.58v10.18
				c0,2.9,0.46,3.95,2.7,3.95c1.25,0,2.87-0.49,4.99-1.42v-12.71h2.61v15.95H1080.32z"/>
			<path class="st0" d="M1091.6,145.68c-2.23,0-4.7-0.46-5.22-0.64v-2c0.96,0.09,3.22,0.41,5.13,0.41c2.73,0,3.42-0.75,3.42-2.15
				c0-1.42-0.49-1.86-3.22-3.02l-1.16-0.49c-3.07-1.31-4.38-2.61-4.38-4.9c0-2.67,1.77-3.97,5.77-3.97c2.15,0,4.24,0.38,4.82,0.58
				v1.94c-1.68-0.17-3.6-0.29-4.7-0.29c-2.32,0-3.28,0.29-3.28,1.74c0,1.25,0.52,1.77,2.79,2.76l1.16,0.49
				c3.71,1.65,4.82,2.64,4.82,5.1C1097.55,143.53,1096.33,145.68,1091.6,145.68z"/>
			<path class="st0" d="M1102.88,138.25v0.32c0,2.75,0.41,4.84,4.82,4.84c1.77,0,4.06-0.2,5.57-0.46v2.09
				c-1.1,0.29-3.05,0.64-5.69,0.64c-5.66,0-7.31-2.52-7.31-7.69v-1.22c0-5.02,2.23-7.86,6.76-7.86c4.7,0,6.85,2.81,6.85,8.18v1.16
				H1102.88z M1111.18,135.82c0-1.94-0.41-4.64-4.12-4.64c-3.65,0-4.15,2.7-4.15,4.64v0.29h8.27V135.82z"/>
			<path class="st0" d="M1123.47,145.27v-21.55h2.67v19.2h9.86v2.35H1123.47z"/>
			<path class="st0" d="M1141.67,126.1v6.79h9.49v2.41h-9.49v9.98H1139v-21.55h12.76v2.38H1141.67z"/>
			<path class="st0" d="M1157.71,136.89v8.38h-2.67v-21.55c1.39,0,2.78-0.03,4.12-0.03c5.42,0,9.92,0.32,9.95,6.76
				C1169.11,136.86,1163.92,136.89,1157.71,136.89z M1159.13,126.1h-1.42v8.44h0.87c5.19,0,7.83-0.12,7.83-4.09
				C1166.38,126.22,1163.95,126.1,1159.13,126.1z"/>
			<path class="st0" d="M1183.64,145.68c-4.35,0-6.38-2.64-6.38-7.19v-2.41c0-4.58,2.03-7.17,6.38-7.17c2.32,0,4,0.38,4.55,0.55
				v1.97c-1.94-0.2-3.34-0.29-4.18-0.29c-2.55,0-4.15,0.96-4.15,4.93v2.41c0,3.97,1.6,4.96,4.15,4.96c0.84,0,2.23-0.09,4.18-0.29
				v1.97C1187.64,145.3,1185.96,145.68,1183.64,145.68z"/>
			<path class="st0" d="M1193.25,138.25v0.32c0,2.75,0.41,4.84,4.82,4.84c1.77,0,4.06-0.2,5.57-0.46v2.09
				c-1.1,0.29-3.05,0.64-5.69,0.64c-5.66,0-7.31-2.52-7.31-7.69v-1.22c0-5.02,2.23-7.86,6.76-7.86c4.7,0,6.84,2.81,6.84,8.18v1.16
				H1193.25z M1201.55,135.82c0-1.94-0.41-4.64-4.12-4.64c-3.65,0-4.15,2.7-4.15,4.64v0.29h8.27V135.82z"/>
			<path class="st0" d="M1207.77,145.27v-22.45h2.58v22.45H1207.77z"/>
			<path class="st0" d="M1214.55,145.27v-22.45h2.58v22.45H1214.55z"/>
			<path class="st0" d="M1225.86,145.68c-2.23,0-4.7-0.46-5.22-0.64v-2c0.96,0.09,3.22,0.41,5.13,0.41c2.73,0,3.42-0.75,3.42-2.15
				c0-1.42-0.49-1.86-3.22-3.02l-1.16-0.49c-3.07-1.31-4.38-2.61-4.38-4.9c0-2.67,1.77-3.97,5.77-3.97c2.15,0,4.24,0.38,4.82,0.58
				v1.94c-1.68-0.17-3.6-0.29-4.7-0.29c-2.32,0-3.28,0.29-3.28,1.74c0,1.25,0.52,1.77,2.79,2.76l1.16,0.49
				c3.71,1.65,4.82,2.64,4.82,5.1C1231.81,143.53,1230.59,145.68,1225.86,145.68z"/>
			<path class="st0" d="M1235.23,145.27v-4h2.61v4H1235.23z"/>
		</g>
	</g>
	<g>
		<path class="st0" d="M1262.11,446.57H909.72c-13.61,0-25.69,9.26-29.36,22.51c-23.28,84.07-89.96,150.75-174.03,174.03
			c-13.25,3.67-22.51,15.74-22.51,29.36V787.6c0,16.76,13.64,30.4,30.4,30.4h547.89c16.76,0,30.4-13.64,30.4-30.4V630.66V476.97
			C1292.51,460.21,1278.87,446.57,1262.11,446.57z M1287.9,630.66V787.6c0,14.22-11.57,25.79-25.79,25.79H714.22
			c-14.22,0-25.79-11.57-25.79-25.79V672.46c0-11.55,7.87-21.8,19.13-24.92c85.62-23.71,153.53-91.62,177.24-177.24
			c3.12-11.26,13.36-19.13,24.91-19.13h352.39c14.22,0,25.79,11.57,25.79,25.79V630.66z"/>
		<path class="st1" d="M906.71,446.79c-23.24-2.23-44.63,12.36-51.44,34.69c-9.96,32.65-27.86,62.57-52.24,86.72
			c-23.81,23.6-53.01,41.02-84.65,50.87c-22.27,6.93-36.77,28.33-34.28,51.52l0.01,0.05c56.18-6.04,109.35-31.38,149.71-71.37
			c40.94-40.56,66.8-94.52,72.84-151.94L906.71,446.79L906.71,446.79z"/>
		<g>
			<path class="st0" d="M851.23,684.68c-4.93,0-8.7-1.83-8.7-9.4v-3.57c0-7.57,3.77-9.34,8.7-9.34c1.97,0,4.12,0.35,4.99,0.49v2.18
				c-1.33-0.12-3.39-0.29-4.99-0.29c-4.06,0-6.03,1.65-6.03,6.96v3.57c0,5.31,1.97,6.99,6.03,6.99c1.59,0,3.65-0.15,4.99-0.26v2.18
				C855.35,684.33,853.21,684.68,851.23,684.68z"/>
			<path class="st0" d="M865.18,684.68c-4.47,0-6.79-2.58-6.79-7.22v-2.32c0-4.64,2.32-7.22,6.79-7.22c4.5,0,6.82,2.58,6.82,7.22
				v2.32C872,682.1,869.68,684.68,865.18,684.68z M869.39,675.14c0-3.45-1.28-4.93-4.21-4.93c-2.87,0-4.18,1.48-4.18,4.93v2.32
				c0,3.45,1.28,4.93,4.18,4.93c2.93,0,4.21-1.48,4.21-4.93V675.14z"/>
			<path class="st0" d="M893.34,684.27v-10.59c0-2.23,0-3.54-2.38-3.54c-1.1,0-2.64,0.52-4.03,1.33c0.12,0.75,0.12,1.51,0.12,2.21
				v10.59h-2.61v-10.59c0-2.23,0-3.54-2.18-3.54c-1.39,0-2.99,0.72-4.15,1.39v12.73h-2.58v-15.95h2.58v1.25
				c1.3-0.96,2.96-1.65,4.76-1.65c1.86,0,2.9,0.67,3.51,1.71c1.86-1.22,3.48-1.71,4.93-1.71c4.64,0,4.64,3.31,4.64,5.77v10.59
				H893.34z"/>
			<path class="st0" d="M906.16,684.68c-1.07,0-2.58-0.2-3.57-0.46v6.15h-2.58v-22.04h2.5v1.07c1.42-0.99,3.1-1.48,4.64-1.48
				c3.66,0,5.77,2.06,5.77,7.43v1.57C912.92,683.06,909.99,684.68,906.16,684.68z M910.34,675.34c0-3.92-1.22-5.13-3.6-5.13
				c-1.25,0-2.26,0.26-4.15,1.19v10.65c1.3,0.26,2.49,0.44,3.57,0.44c2.55,0,4.18-0.9,4.18-5.57V675.34z"/>
			<path class="st0" d="M919.07,671.6v12.68h-2.58v-15.95h2.55v1.28c1.51-1.19,3.45-1.68,5.69-1.68v2.32
				C922.64,670.23,920.29,670.81,919.07,671.6z"/>
			<path class="st0" d="M929.18,677.25v0.32c0,2.76,0.41,4.84,4.82,4.84c1.77,0,4.06-0.2,5.57-0.46v2.09
				c-1.1,0.29-3.05,0.64-5.69,0.64c-5.66,0-7.31-2.52-7.31-7.69v-1.22c0-5.02,2.23-7.86,6.76-7.86c4.7,0,6.84,2.81,6.84,8.18v1.16
				H929.18z M937.48,674.82c0-1.94-0.41-4.64-4.12-4.64c-3.65,0-4.15,2.7-4.15,4.64v0.29h8.27V674.82z"/>
			<path class="st0" d="M953.86,684.27v-10.09c0-3.13-0.81-4-3.02-4c-1.83,0-3.66,0.64-4.67,1.13v12.97h-2.58v-22.45h2.58v7.4
				c1.01-0.52,2.87-1.3,5.19-1.3c3.48,0,5.1,2,5.1,6.18v10.18H953.86z"/>
			<path class="st0" d="M962.55,677.25v0.32c0,2.76,0.41,4.84,4.82,4.84c1.77,0,4.06-0.2,5.57-0.46v2.09
				c-1.1,0.29-3.05,0.64-5.69,0.64c-5.66,0-7.31-2.52-7.31-7.69v-1.22c0-5.02,2.23-7.86,6.76-7.86c4.7,0,6.84,2.81,6.84,8.18v1.16
				H962.55z M970.85,674.82c0-1.94-0.41-4.64-4.12-4.64c-3.65,0-4.15,2.7-4.15,4.64v0.29h8.27V674.82z"/>
			<path class="st0" d="M987.23,684.27v-10.18c0-2.9-0.46-3.94-2.67-3.94c-1.25,0-2.9,0.49-5.02,1.42v12.71h-2.58v-15.95h2.58v1.25
				c1.86-0.96,3.54-1.65,5.31-1.65c4.24,0,4.99,2.29,4.99,6.18v10.18H987.23z"/>
			<path class="st0" d="M998.47,684.68c-2.23,0-4.7-0.46-5.22-0.64v-2c0.96,0.09,3.22,0.41,5.13,0.41c2.73,0,3.42-0.75,3.42-2.15
				c0-1.42-0.49-1.86-3.22-3.02l-1.16-0.49c-3.07-1.31-4.38-2.61-4.38-4.9c0-2.67,1.77-3.97,5.77-3.97c2.15,0,4.24,0.38,4.82,0.58
				v1.94c-1.68-0.17-3.6-0.29-4.7-0.29c-2.32,0-3.28,0.29-3.28,1.74c0,1.25,0.52,1.77,2.79,2.76l1.16,0.49
				c3.71,1.65,4.82,2.64,4.82,5.11C1004.42,682.53,1003.2,684.68,998.47,684.68z"/>
			<path class="st0" d="M1007.61,665.36v-3.54h2.64v3.54H1007.61z M1007.61,684.27v-15.95h2.61v15.95H1007.61z"/>
			<path class="st0" d="M1022.05,684.27h-3.6l-5.31-15.95h2.81l3.05,9.8c0.49,1.57,0.87,2.93,1.31,4.38
				c0.38-1.45,0.72-2.78,1.22-4.38l3.02-9.8h2.81L1022.05,684.27z"/>
			<path class="st0" d="M1031.71,677.25v0.32c0,2.76,0.41,4.84,4.82,4.84c1.77,0,4.06-0.2,5.57-0.46v2.09
				c-1.1,0.29-3.05,0.64-5.69,0.64c-5.66,0-7.31-2.52-7.31-7.69v-1.22c0-5.02,2.23-7.86,6.76-7.86c4.7,0,6.85,2.81,6.85,8.18v1.16
				H1031.71z M1040,674.82c0-1.94-0.41-4.64-4.12-4.64c-3.65,0-4.15,2.7-4.15,4.64v0.29h8.27V674.82z"/>
			<path class="st0" d="M1054.97,665.1v6.79h9.49v2.41h-9.49v9.98h-2.67v-21.55h12.76v2.38H1054.97z"/>
			<path class="st0" d="M1068.32,665.36v-3.54h2.64v3.54H1068.32z M1068.32,684.27v-15.95h2.61v15.95H1068.32z"/>
			<path class="st0" d="M1077.63,671.6v12.68h-2.58v-15.95h2.55v1.28c1.51-1.19,3.45-1.68,5.69-1.68v2.32
				C1081.19,670.23,1078.84,670.81,1077.63,671.6z"/>
			<path class="st0" d="M1087.74,677.25v0.32c0,2.76,0.41,4.84,4.82,4.84c1.77,0,4.06-0.2,5.57-0.46v2.09
				c-1.1,0.29-3.05,0.64-5.69,0.64c-5.66,0-7.31-2.52-7.31-7.69v-1.22c0-5.02,2.23-7.86,6.76-7.86c4.7,0,6.84,2.81,6.84,8.18v1.16
				H1087.74z M1096.04,674.82c0-1.94-0.41-4.64-4.12-4.64c-3.65,0-4.15,2.7-4.15,4.64v0.29h8.27V674.82z"/>
			<path class="st0" d="M1125.91,684.27v-10.59c0-2.23,0-3.54-2.38-3.54c-1.1,0-2.64,0.52-4.03,1.33c0.12,0.75,0.12,1.51,0.12,2.21
				v10.59H1117v-10.59c0-2.23,0-3.54-2.18-3.54c-1.39,0-2.99,0.72-4.15,1.39v12.73h-2.58v-15.95h2.58v1.25
				c1.3-0.96,2.96-1.65,4.76-1.65c1.86,0,2.9,0.67,3.51,1.71c1.86-1.22,3.48-1.71,4.93-1.71c4.64,0,4.64,3.31,4.64,5.77v10.59
				H1125.91z"/>
			<path class="st0" d="M1132.66,665.36v-3.54h2.64v3.54H1132.66z M1132.66,684.27v-15.95h2.61v15.95H1132.66z"/>
			<path class="st0" d="M1145.39,684.68c-2.9,0-3.94-1.04-3.94-4.06v-10.12l-3.22-0.23v-1.94h3.22v-4.15h2.61v4.15h4.26v2.17h-4.26
				v10.01c0,1.8,0.14,2.09,1.62,2.09c0.9,0,2.15-0.09,2.64-0.14v1.8C1147.88,684.39,1146.61,684.68,1145.39,684.68z"/>
			<path class="st0" d="M1151.35,665.36v-3.54h2.64v3.54H1151.35z M1151.35,684.27v-15.95h2.61v15.95H1151.35z"/>
			<path class="st0" d="M1164.32,690.74c-2.44,0-5.37-0.46-5.86-0.58v-1.89c1.74,0.12,3.83,0.23,5.86,0.23
				c3.16,0,3.54-1.13,3.54-3.34v-0.81c-0.52,0.09-2.03,0.29-3.22,0.29c-4.5,0-7.11-1.8-7.11-7.37v-2c0-4.9,2.06-7.37,7.19-7.37
				c1.89,0,4.15,0.2,5.74,0.41v16.85C1170.47,688.45,1169.43,690.74,1164.32,690.74z M1167.86,670.32c-0.32-0.06-1.68-0.2-3.13-0.2
				c-3.6,0-4.58,1.71-4.58,5.16v2c0,4,1.28,5.16,4.53,5.16c1.19,0,2.78-0.17,3.19-0.26V670.32z"/>
			<path class="st0" d="M1183.56,684.27v-1.07c-0.96,0.67-2.7,1.48-5.08,1.48c-2.99,0-4.76-1.33-4.76-4.53v-0.58
				c0-4.21,2.87-4.93,7.34-4.93h2.38v-1.16c0-2.76-0.55-3.37-3.74-3.37c-1.77,0-3.19,0.15-4.93,0.35v-1.86
				c0.46-0.17,2.67-0.7,5.13-0.7c5.31,0,6.15,1.94,6.15,5.57v10.79H1183.56z M1183.44,676.62h-2.38c-3.37,0-4.73,0.41-4.73,2.96
				v0.78c0,1.8,1.1,2.29,2.67,2.29c1.89,0,3.77-0.84,4.44-1.28V676.62z"/>
			<path class="st0" d="M1195.85,684.68c-2.9,0-3.94-1.04-3.94-4.06v-10.12l-3.22-0.23v-1.94h3.22v-4.15h2.61v4.15h4.26v2.17h-4.26
				v10.01c0,1.8,0.14,2.09,1.62,2.09c0.9,0,2.15-0.09,2.64-0.14v1.8C1198.34,684.39,1197.07,684.68,1195.85,684.68z"/>
			<path class="st0" d="M1201.81,665.36v-3.54h2.64v3.54H1201.81z M1201.81,684.27v-15.95h2.61v15.95H1201.81z"/>
			<path class="st0" d="M1214.78,684.68c-4.47,0-6.79-2.58-6.79-7.22v-2.32c0-4.64,2.32-7.22,6.79-7.22c4.5,0,6.82,2.58,6.82,7.22
				v2.32C1221.6,682.1,1219.28,684.68,1214.78,684.68z M1218.99,675.14c0-3.45-1.28-4.93-4.21-4.93c-2.87,0-4.18,1.48-4.18,4.93
				v2.32c0,3.45,1.28,4.93,4.18,4.93c2.93,0,4.21-1.48,4.21-4.93V675.14z"/>
			<path class="st0" d="M1235.41,684.27v-10.18c0-2.9-0.46-3.94-2.67-3.94c-1.25,0-2.9,0.49-5.02,1.42v12.71h-2.58v-15.95h2.58v1.25
				c1.86-0.96,3.54-1.65,5.31-1.65c4.24,0,4.99,2.29,4.99,6.18v10.18H1235.41z"/>
			<path class="st0" d="M981.77,716.39c-1.48,1.42-3.6,2.29-6.61,2.29c-4.23,0-7.02-1.68-7.02-5.98c0-2.81,1.51-4.79,4.38-6.41
				c-1.59-1.74-2.87-3.1-2.87-5.31c0-3.25,2.06-4.61,6.29-4.61c1.57,0,3.66,0.15,5.28,0.46v2.09c-1.77-0.17-3.71-0.23-5.28-0.23
				c-2.58,0-3.6,0.46-3.6,2.26c0,1.25,0.7,2.21,2.7,4.35l6.73,7.28c0.52-1.36,0.78-3.02,0.87-4.9l-1.77-0.2v-2h5.66v2l-1.68,0.2
				c-0.12,2.47-0.52,4.76-1.51,6.61l3.25,3.51v0.46h-3.04L981.77,716.39z M980.34,714.82l-6.35-6.93c-1.88,1.1-3.13,2.32-3.13,4.82
				c0,2.61,1.51,3.8,4.26,3.8C977.53,716.5,979.21,715.89,980.34,714.82z"/>
			<path class="st0" d="M1000.24,718.68c-2.23,0-4.7-0.46-5.22-0.64v-2c0.96,0.09,3.22,0.41,5.13,0.41c2.73,0,3.42-0.75,3.42-2.15
				c0-1.42-0.49-1.86-3.22-3.02l-1.16-0.49c-3.07-1.31-4.38-2.61-4.38-4.9c0-2.67,1.77-3.97,5.77-3.97c2.15,0,4.24,0.38,4.82,0.58
				v1.94c-1.68-0.17-3.6-0.29-4.7-0.29c-2.32,0-3.28,0.29-3.28,1.74c0,1.25,0.52,1.77,2.79,2.76l1.16,0.49
				c3.71,1.65,4.82,2.64,4.82,5.1C1006.18,716.53,1004.96,718.68,1000.24,718.68z"/>
			<path class="st0" d="M1019.52,718.27v-1.25c-2.12,1.07-3.92,1.65-5.54,1.65c-3.94,0-4.73-2.73-4.73-6.18v-10.18h2.58v10.18
				c0,2.9,0.46,3.95,2.7,3.95c1.25,0,2.87-0.49,4.99-1.42v-12.71h2.61v15.95H1019.52z"/>
			<path class="st0" d="M1032.34,718.68c-1.07,0-2.58-0.2-3.57-0.46v6.15h-2.58v-22.05h2.5v1.07c1.42-0.99,3.1-1.48,4.64-1.48
				c3.66,0,5.77,2.06,5.77,7.43v1.57C1039.09,717.05,1036.17,718.68,1032.34,718.68z M1036.51,709.34c0-3.92-1.22-5.13-3.6-5.13
				c-1.25,0-2.26,0.26-4.15,1.19v10.65c1.3,0.26,2.49,0.43,3.57,0.43c2.55,0,4.18-0.9,4.18-5.57V709.34z"/>
			<path class="st0" d="M1048.81,718.68c-1.07,0-2.58-0.2-3.57-0.46v6.15h-2.58v-22.05h2.5v1.07c1.42-0.99,3.1-1.48,4.64-1.48
				c3.66,0,5.77,2.06,5.77,7.43v1.57C1055.57,717.05,1052.64,718.68,1048.81,718.68z M1052.99,709.34c0-3.92-1.22-5.13-3.6-5.13
				c-1.25,0-2.26,0.26-4.15,1.19v10.65c1.3,0.26,2.49,0.43,3.57,0.43c2.55,0,4.18-0.9,4.18-5.57V709.34z"/>
			<path class="st0" d="M1061.72,705.6v12.68h-2.58v-15.95h2.55v1.28c1.51-1.19,3.45-1.68,5.69-1.68v2.32
				C1065.29,704.23,1062.94,704.81,1061.72,705.6z"/>
			<path class="st0" d="M1071.84,711.25v0.32c0,2.75,0.41,4.84,4.82,4.84c1.77,0,4.06-0.2,5.57-0.46v2.09
				c-1.1,0.29-3.05,0.64-5.69,0.64c-5.66,0-7.31-2.52-7.31-7.69v-1.22c0-5.02,2.23-7.86,6.76-7.86c4.7,0,6.85,2.81,6.85,8.18v1.16
				H1071.84z M1080.13,708.82c0-1.94-0.41-4.64-4.12-4.64c-3.65,0-4.15,2.7-4.15,4.64v0.29h8.27V708.82z"/>
			<path class="st0" d="M1091.05,718.68c-2.23,0-4.7-0.46-5.22-0.64v-2c0.96,0.09,3.22,0.41,5.13,0.41c2.73,0,3.42-0.75,3.42-2.15
				c0-1.42-0.49-1.86-3.22-3.02l-1.16-0.49c-3.07-1.31-4.38-2.61-4.38-4.9c0-2.67,1.77-3.97,5.77-3.97c2.15,0,4.24,0.38,4.82,0.58
				v1.94c-1.68-0.17-3.6-0.29-4.7-0.29c-2.32,0-3.28,0.29-3.28,1.74c0,1.25,0.52,1.77,2.79,2.76l1.16,0.49
				c3.71,1.65,4.82,2.64,4.82,5.1C1096.99,716.53,1095.77,718.68,1091.05,718.68z"/>
			<path class="st0" d="M1104.93,718.68c-2.23,0-4.7-0.46-5.22-0.64v-2c0.96,0.09,3.22,0.41,5.13,0.41c2.73,0,3.42-0.75,3.42-2.15
				c0-1.42-0.49-1.86-3.22-3.02l-1.16-0.49c-3.07-1.31-4.38-2.61-4.38-4.9c0-2.67,1.77-3.97,5.77-3.97c2.15,0,4.24,0.38,4.82,0.58
				v1.94c-1.68-0.17-3.6-0.29-4.7-0.29c-2.32,0-3.28,0.29-3.28,1.74c0,1.25,0.52,1.77,2.79,2.76l1.16,0.49
				c3.71,1.65,4.82,2.64,4.82,5.1C1110.88,716.53,1109.66,718.68,1104.93,718.68z"/>
			<path class="st0" d="M1114.07,699.36v-3.54h2.64v3.54H1114.07z M1114.07,718.27v-15.95h2.61v15.95H1114.07z"/>
			<path class="st0" d="M1127.04,718.68c-4.47,0-6.79-2.58-6.79-7.22v-2.32c0-4.64,2.32-7.22,6.79-7.22c4.5,0,6.82,2.58,6.82,7.22
				v2.32C1133.86,716.1,1131.54,718.68,1127.04,718.68z M1131.25,709.14c0-3.45-1.28-4.93-4.21-4.93c-2.87,0-4.18,1.48-4.18,4.93
				v2.32c0,3.45,1.28,4.93,4.18,4.93c2.93,0,4.21-1.48,4.21-4.93V709.14z"/>
			<path class="st0" d="M1147.66,718.27v-10.18c0-2.9-0.46-3.94-2.67-3.94c-1.25,0-2.9,0.49-5.02,1.42v12.71h-2.58v-15.95h2.58v1.25
				c1.86-0.96,3.54-1.65,5.31-1.65c4.24,0,4.99,2.29,4.99,6.18v10.18H1147.66z"/>
			<path class="st0" d="M1164.86,718.68c-2.23,0-4.7-0.46-5.22-0.64v-2c0.96,0.09,3.22,0.41,5.13,0.41c2.73,0,3.42-0.75,3.42-2.15
				c0-1.42-0.49-1.86-3.22-3.02l-1.16-0.49c-3.07-1.31-4.38-2.61-4.38-4.9c0-2.67,1.77-3.97,5.77-3.97c2.15,0,4.24,0.38,4.82,0.58
				v1.94c-1.68-0.17-3.6-0.29-4.7-0.29c-2.32,0-3.28,0.29-3.28,1.74c0,1.25,0.52,1.77,2.79,2.76l1.16,0.49
				c3.71,1.65,4.82,2.64,4.82,5.1C1170.81,716.53,1169.59,718.68,1164.86,718.68z"/>
			<path class="st0" d="M1176.14,711.25v0.32c0,2.75,0.41,4.84,4.82,4.84c1.77,0,4.06-0.2,5.57-0.46v2.09
				c-1.1,0.29-3.05,0.64-5.69,0.64c-5.66,0-7.31-2.52-7.31-7.69v-1.22c0-5.02,2.23-7.86,6.76-7.86c4.7,0,6.84,2.81,6.84,8.18v1.16
				H1176.14z M1184.44,708.82c0-1.94-0.41-4.64-4.12-4.64c-3.65,0-4.15,2.7-4.15,4.64v0.29h8.27V708.82z"/>
			<path class="st0" d="M1196.29,718.68c-2.9,0-3.94-1.04-3.94-4.06v-10.12l-3.22-0.23v-1.94h3.22v-4.15h2.61v4.15h4.26v2.18h-4.26
				v10.01c0,1.8,0.14,2.09,1.62,2.09c0.9,0,2.15-0.09,2.64-0.14v1.8C1198.78,718.39,1197.51,718.68,1196.29,718.68z"/>
			<path class="st0" d="M1212.41,718.27v-1.25c-2.12,1.07-3.92,1.65-5.54,1.65c-3.94,0-4.73-2.73-4.73-6.18v-10.18h2.58v10.18
				c0,2.9,0.46,3.95,2.7,3.95c1.25,0,2.87-0.49,4.99-1.42v-12.71h2.61v15.95H1212.41z"/>
			<path class="st0" d="M1225.23,718.68c-1.07,0-2.58-0.2-3.57-0.46v6.15h-2.58v-22.05h2.5v1.07c1.42-0.99,3.1-1.48,4.64-1.48
				c3.66,0,5.77,2.06,5.77,7.43v1.57C1231.99,717.05,1229.06,718.68,1225.23,718.68z M1229.41,709.34c0-3.92-1.22-5.13-3.6-5.13
				c-1.25,0-2.26,0.26-4.15,1.19v10.65c1.3,0.26,2.49,0.43,3.57,0.43c2.55,0,4.18-0.9,4.18-5.57V709.34z"/>
			<path class="st0" d="M1235.23,718.27v-4h2.61v4H1235.23z"/>
		</g>
	</g>
</g>
</svg>
